<svg width="45" height="44" viewBox="0 0 45 44" fill="none" xmlns="http://www.w3.org/2000/svg">
<circle cx="22.5" cy="22" r="22" fill="#F2F8FF"/>
<path d="M27.2502 13.56V12C27.2502 11.59 26.9102 11.25 26.5002 11.25C26.0902 11.25 25.7502 11.59 25.7502 12V13.5H19.2502V12C19.2502 11.59 18.9102 11.25 18.5002 11.25C18.0902 11.25 17.7502 11.59 17.7502 12V13.56C15.0502 13.81 13.7402 15.42 13.5402 17.81C13.5202 18.1 13.7602 18.34 14.0402 18.34H30.9602C31.2502 18.34 31.4902 18.09 31.4602 17.81C31.2602 15.42 29.9502 13.81 27.2502 13.56Z" fill="#B9D5FF"/>
<path d="M30.5 19.8398H14.5C13.95 19.8398 13.5 20.2898 13.5 20.8398V26.9998C13.5 29.9998 15 31.9998 18.5 31.9998H26.5C30 31.9998 31.5 29.9998 31.5 26.9998V20.8398C31.5 20.2898 31.05 19.8398 30.5 19.8398ZM19.71 28.2098C19.66 28.2498 19.61 28.2998 19.56 28.3298C19.5 28.3698 19.44 28.3998 19.38 28.4198C19.32 28.4498 19.26 28.4698 19.2 28.4798C19.13 28.4898 19.07 28.4998 19 28.4998C18.87 28.4998 18.74 28.4698 18.62 28.4198C18.49 28.3698 18.39 28.2998 18.29 28.2098C18.11 28.0198 18 27.7598 18 27.4998C18 27.2398 18.11 26.9798 18.29 26.7898C18.39 26.6998 18.49 26.6298 18.62 26.5798C18.8 26.4998 19 26.4798 19.2 26.5198C19.26 26.5298 19.32 26.5498 19.38 26.5798C19.44 26.5998 19.5 26.6298 19.56 26.6698C19.61 26.7098 19.66 26.7498 19.71 26.7898C19.89 26.9798 20 27.2398 20 27.4998C20 27.7598 19.89 28.0198 19.71 28.2098ZM19.71 24.7098C19.52 24.8898 19.26 24.9998 19 24.9998C18.74 24.9998 18.48 24.8898 18.29 24.7098C18.11 24.5198 18 24.2598 18 23.9998C18 23.7398 18.11 23.4798 18.29 23.2898C18.57 23.0098 19.01 22.9198 19.38 23.0798C19.51 23.1298 19.62 23.1998 19.71 23.2898C19.89 23.4798 20 23.7398 20 23.9998C20 24.2598 19.89 24.5198 19.71 24.7098ZM23.21 28.2098C23.02 28.3898 22.76 28.4998 22.5 28.4998C22.24 28.4998 21.98 28.3898 21.79 28.2098C21.61 28.0198 21.5 27.7598 21.5 27.4998C21.5 27.2398 21.61 26.9798 21.79 26.7898C22.16 26.4198 22.84 26.4198 23.21 26.7898C23.39 26.9798 23.5 27.2398 23.5 27.4998C23.5 27.7598 23.39 28.0198 23.21 28.2098ZM23.21 24.7098C23.16 24.7498 23.11 24.7898 23.06 24.8298C23 24.8698 22.94 24.8998 22.88 24.9198C22.82 24.9498 22.76 24.9698 22.7 24.9798C22.63 24.9898 22.57 24.9998 22.5 24.9998C22.24 24.9998 21.98 24.8898 21.79 24.7098C21.61 24.5198 21.5 24.2598 21.5 23.9998C21.5 23.7398 21.61 23.4798 21.79 23.2898C21.88 23.1998 21.99 23.1298 22.12 23.0798C22.49 22.9198 22.93 23.0098 23.21 23.2898C23.39 23.4798 23.5 23.7398 23.5 23.9998C23.5 24.2598 23.39 24.5198 23.21 24.7098ZM26.71 28.2098C26.52 28.3898 26.26 28.4998 26 28.4998C25.74 28.4998 25.48 28.3898 25.29 28.2098C25.11 28.0198 25 27.7598 25 27.4998C25 27.2398 25.11 26.9798 25.29 26.7898C25.66 26.4198 26.34 26.4198 26.71 26.7898C26.89 26.9798 27 27.2398 27 27.4998C27 27.7598 26.89 28.0198 26.71 28.2098ZM26.71 24.7098C26.66 24.7498 26.61 24.7898 26.56 24.8298C26.5 24.8698 26.44 24.8998 26.38 24.9198C26.32 24.9498 26.26 24.9698 26.2 24.9798C26.13 24.9898 26.06 24.9998 26 24.9998C25.74 24.9998 25.48 24.8898 25.29 24.7098C25.11 24.5198 25 24.2598 25 23.9998C25 23.7398 25.11 23.4798 25.29 23.2898C25.39 23.1998 25.49 23.1298 25.62 23.0798C25.8 22.9998 26 22.9798 26.2 23.0198C26.26 23.0298 26.32 23.0498 26.38 23.0798C26.44 23.0998 26.5 23.1298 26.56 23.1698C26.61 23.2098 26.66 23.2498 26.71 23.2898C26.89 23.4798 27 23.7398 27 23.9998C27 24.2598 26.89 24.5198 26.71 24.7098Z" fill="#B9D5FF"/>
</svg>
