<svg width="45" height="44" viewBox="0 0 45 44" fill="none" xmlns="http://www.w3.org/2000/svg">
<circle cx="22.5" cy="22" r="22" fill="#FFF8F2"/>
<path d="M16.25 16.5C15.6533 16.5 15.081 16.7371 14.659 17.159C14.2371 17.581 14 18.1533 14 18.75V23.25C13.9981 25.2427 14.7174 27.1687 16.0252 28.6722C17.3329 30.1757 19.1406 31.1551 21.1143 31.4294C23.088 31.7037 25.0943 31.2544 26.7625 30.1645C28.4307 29.0745 29.648 27.4177 30.1895 25.5H31.25C32.2446 25.5 33.1984 25.1049 33.9017 24.4017C34.6049 23.6984 35 22.7446 35 21.75C35 20.7554 34.6049 19.8016 33.9017 19.0984C33.1984 18.3951 32.2446 18 31.25 18H30.3725C30.2173 17.5611 29.9299 17.1812 29.5497 16.9125C29.1696 16.6439 28.7155 16.4998 28.25 16.5H16.25ZM30.5 19.5H31.25C31.8467 19.5 32.419 19.7371 32.841 20.159C33.263 20.581 33.5 21.1533 33.5 21.75C33.5 22.3467 33.263 22.919 32.841 23.341C32.419 23.7629 31.8467 24 31.25 24H30.467C30.488 23.7525 30.5 23.5035 30.5 23.25V19.5Z" fill="#FFCAB9"/>
</svg>
