<svg width="161" height="160" viewBox="0 0 161 160" fill="none" xmlns="http://www.w3.org/2000/svg">
<path d="M117.191 21.6895H46.5542V92.3262H117.191V21.6895Z" fill="#EBEBEB"/>
<path d="M44.4806 24.7734H12.6982V68.527H44.4806V24.7734Z" fill="#E0E0E0"/>
<path d="M42.4938 24.7734H9.67139V68.527H42.4938V24.7734Z" fill="#EBEBEB"/>
<path d="M39.3704 27.832H12.8008V65.1504H39.3704V27.832Z" fill="#FAFAFA"/>
<path d="M12.8008 65.1514H39.3608V55.3594H12.8008V65.1514Z" fill="#F5F5F5"/>
<path d="M29.0218 44.5999L29.8794 46.6031C29.8794 46.6031 27.9178 48.0335 28.2026 50.2415C28.4874 52.4495 30.1226 56.9071 30.1226 56.9071H33.5562C33.5562 56.9071 35.2746 50.6927 35.233 49.6687C35.1914 48.6447 33.7194 46.6415 33.7194 46.6415L34.497 44.5999C34.497 44.5999 31.4346 42.7183 29.0218 44.5999Z" fill="#E0E0E0"/>
<path d="M28.8425 51.1983C28.1769 50.5999 27.3513 49.8544 27.0793 48.84C27.0109 48.6439 26.989 48.4347 27.0151 48.2287C27.0411 48.0227 27.1146 47.8256 27.2297 47.6527C27.3518 47.5085 27.506 47.3949 27.6799 47.3209C27.8538 47.247 28.0427 47.2149 28.2313 47.2271C28.5617 47.2555 28.8856 47.3354 29.1913 47.4639L29.0345 47.8863C28.7748 47.7753 28.4996 47.7052 28.2185 47.6783C28.0996 47.6661 27.9796 47.6824 27.8683 47.7258C27.757 47.7692 27.6577 47.8385 27.5785 47.9279C27.5096 48.0477 27.4674 48.1808 27.4547 48.3183C27.442 48.4558 27.4591 48.5945 27.5049 48.7248C27.7449 49.6079 28.5129 50.3055 29.1337 50.8623L28.8425 51.1983Z" fill="#E0E0E0"/>
<path d="M34.884 51.4612L34.564 51.1604C34.9791 50.7005 35.3115 50.1721 35.5464 49.5988C35.6574 49.3532 35.7245 49.09 35.7448 48.8212C35.7622 48.58 35.6879 48.3412 35.5368 48.1524C35.4449 48.0525 35.3304 47.9763 35.2028 47.93C35.0753 47.8838 34.9385 47.869 34.804 47.8868C34.5139 47.924 34.2458 48.0609 34.0456 48.274L33.7256 47.954C34.001 47.6685 34.3656 47.4856 34.7592 47.4356C34.9656 47.413 35.1745 47.4392 35.369 47.512C35.5636 47.5848 35.7383 47.7022 35.8792 47.8548C36.1056 48.1304 36.2199 48.4811 36.1992 48.8372C36.1785 49.1599 36.1004 49.4763 35.9688 49.7716C35.7066 50.3928 35.3397 50.9643 34.884 51.4612Z" fill="#E0E0E0"/>
<path d="M34.4998 44.6172C34.2472 44.7174 33.9825 44.7841 33.7126 44.8155C32.4185 45.0392 31.0965 45.05 29.799 44.8474C29.5275 44.82 29.2608 44.7577 29.0054 44.662C29.2755 44.6638 29.5451 44.6863 29.8118 44.7291C30.457 44.7966 31.1054 44.8286 31.7542 44.8251C32.4023 44.8178 33.0496 44.7762 33.6934 44.7003C33.96 44.6543 34.2294 44.6266 34.4998 44.6172Z" fill="#EBEBEB"/>
<path d="M39.3704 32.8794C39.0504 32.4282 37.4504 31.8522 36.9 31.7626C34.4264 31.353 31.844 31.3146 29.4632 32.0826C27.0824 32.8506 24.932 34.569 24.0008 36.8826C23.5208 38.0794 23.3608 39.4106 22.7464 40.5402C21.94 42.0058 20.4936 42.9338 19.38 44.1594C17.967 45.7096 17.1456 47.7082 17.0601 49.804C16.9747 51.8997 17.6307 53.9586 18.9128 55.6186L25.5816 55.6986C25.4184 53.0778 25.4248 50.393 26.2216 47.8842C27.0184 45.3754 28.66 43.0234 31.0472 41.9354C33.5592 40.7962 36.7496 41.0714 39.4792 41.4618L39.3704 32.8794Z" fill="#EBEBEB"/>
<path d="M22.4616 27.8398C23.2008 28.979 22.2504 30.8382 21.2808 31.7918C20.3112 32.7454 19.076 33.5454 18.6248 34.8286C18.1736 36.1118 18.6248 37.5358 18.4136 38.8766C18.3131 39.4836 18.0744 40.0593 17.7161 40.5594C17.3578 41.0595 16.8894 41.4706 16.347 41.761C15.8046 42.0513 15.2028 42.2132 14.5879 42.2341C13.9731 42.255 13.3616 42.1343 12.8008 41.8814V27.8398H22.4616Z" fill="#EBEBEB"/>
<path d="M19.8245 52.1276C19.8245 52.1276 20.1893 52.6332 20.0421 52.9596C19.8949 53.286 18.1605 55.6028 18.8133 57.1964C19.3442 58.3744 19.9997 59.4922 20.7685 60.5308H24.8197C24.8197 60.5308 26.8165 57.3788 26.7749 56.3292C26.7045 54.5852 25.4341 52.7772 25.4341 52.7772L25.7541 52.1372C25.7541 52.1372 22.0005 51.0396 19.8245 52.1276Z" fill="#E0E0E0"/>
<path d="M39.3702 65.1506C39.3702 65.1506 39.3702 65.0866 39.3702 64.9682C39.3702 64.8498 39.3702 64.6706 39.3702 64.4434C39.3702 63.9762 39.3702 63.2914 39.3702 62.405C39.3702 60.6226 39.3702 58.0242 39.3478 54.725C39.3478 48.1554 39.3254 38.8338 39.3126 27.8194L39.3862 27.893H12.8262L12.8838 27.8386C12.8838 41.8162 12.8838 54.7442 12.8678 65.157L12.8006 65.0898L32.119 65.125L37.4758 65.141H38.8838H39.3702H38.8998H37.5014L32.1606 65.1602L12.8006 65.1954H12.7334V65.1282C12.7334 54.7154 12.7334 41.7874 12.7334 27.8098V27.7266H12.8198H39.3798H39.4566V27.8386C39.4566 38.8754 39.4278 48.2098 39.4182 54.7922C39.4182 58.0722 39.4182 60.6674 39.399 62.4434C39.399 63.3234 39.399 64.0018 39.399 64.4658C39.399 64.693 39.399 64.8626 39.399 64.9842C39.399 65.1058 39.3702 65.1506 39.3702 65.1506Z" fill="#E0E0E0"/>
<path d="M42.4901 24.7734C42.0425 25.3539 41.5399 25.8897 40.9893 26.3734C40.4773 26.8917 39.9367 27.381 39.3701 27.839C39.8183 27.2581 40.322 26.7223 40.8741 26.239C41.3845 25.7202 41.9241 25.2309 42.4901 24.7734Z" fill="#E0E0E0"/>
<path d="M9.58154 24.7637C10.1786 25.2116 10.7402 25.7048 11.2615 26.2389C11.8224 26.7323 12.3455 27.2671 12.8263 27.8389C12.231 27.3877 11.6695 26.8936 11.1463 26.3605C10.5869 25.8667 10.0639 25.333 9.58154 24.7637Z" fill="#E0E0E0"/>
<path d="M9.67139 68.5263C10.1246 67.9399 10.6221 67.3889 11.1594 66.8783C11.6534 66.3249 12.1882 65.8094 12.7594 65.3359C12.3031 65.9239 11.8048 66.4779 11.2682 66.9935C10.7741 67.5428 10.2404 68.0551 9.67139 68.5263Z" fill="#E0E0E0"/>
<path d="M42.3879 68.5821C42.3431 68.6109 41.8023 67.7245 40.9607 66.7677C40.1191 65.8109 39.3159 65.1517 39.3607 65.1133C39.5642 65.217 39.7518 65.3496 39.9175 65.5069C40.3398 65.8592 40.7336 66.2444 41.0951 66.6589C41.4572 67.0722 41.7867 67.513 42.0807 67.9773C42.2125 68.1625 42.316 68.3664 42.3879 68.5821Z" fill="#E0E0E0"/>
<path d="M128.785 109.283H70.2056V136.301H128.785V109.283Z" fill="#F5F5F5"/>
<path d="M127.39 135.039H71.54V110.719H127.39V135.039ZM71.9112 134.674H127.025V111.068H71.9112V134.674Z" fill="#E0E0E0"/>
<path d="M143.095 109.283H128.785V136.301H143.095V109.283Z" fill="#E0E0E0"/>
<path d="M71.7289 118.231H127.22C127.24 118.231 127.258 118.223 127.272 118.209C127.286 118.195 127.294 118.176 127.294 118.156C127.294 118.137 127.286 118.118 127.272 118.104C127.258 118.09 127.24 118.082 127.22 118.082H71.7289C71.7094 118.082 71.6906 118.09 71.6768 118.104C71.663 118.118 71.6553 118.137 71.6553 118.156C71.6553 118.176 71.663 118.195 71.6768 118.209C71.6906 118.223 71.7094 118.231 71.7289 118.231Z" fill="#E0E0E0"/>
<path d="M99.6487 118.157C99.8023 115.713 99.8087 113.263 99.6679 110.819C99.6643 110.802 99.6549 110.786 99.6412 110.775C99.6275 110.764 99.6104 110.758 99.5927 110.758C99.5751 110.758 99.5579 110.764 99.5442 110.775C99.5305 110.786 99.5211 110.802 99.5175 110.819C99.3767 113.263 99.3831 115.713 99.5367 118.157C99.5397 118.169 99.5469 118.18 99.5571 118.188C99.5672 118.196 99.5798 118.201 99.5927 118.201C99.6057 118.201 99.6182 118.196 99.6284 118.188C99.6385 118.18 99.6457 118.169 99.6487 118.157Z" fill="#E0E0E0"/>
<path d="M114.583 114.489C114.583 114.639 114.539 114.785 114.455 114.91C114.372 115.035 114.254 115.132 114.115 115.19C113.976 115.247 113.824 115.262 113.677 115.233C113.53 115.203 113.395 115.131 113.289 115.025C113.182 114.919 113.11 114.784 113.081 114.637C113.052 114.49 113.067 114.337 113.124 114.199C113.182 114.06 113.279 113.942 113.403 113.858C113.528 113.775 113.675 113.73 113.825 113.73C114.026 113.73 114.219 113.81 114.361 113.953C114.503 114.095 114.583 114.288 114.583 114.489Z" fill="#E0E0E0"/>
<path d="M85.4665 114.489C85.4665 114.639 85.4219 114.786 85.3385 114.911C85.255 115.035 85.1364 115.133 84.9976 115.19C84.8588 115.247 84.7062 115.262 84.559 115.232C84.4118 115.203 84.2766 115.13 84.1707 115.024C84.0648 114.918 83.9928 114.782 83.9639 114.635C83.935 114.488 83.9505 114.335 84.0084 114.196C84.0662 114.058 84.1639 113.94 84.2891 113.857C84.4142 113.774 84.5612 113.73 84.7113 113.73C84.8107 113.73 84.9092 113.75 85.0011 113.788C85.0929 113.826 85.1763 113.882 85.2464 113.953C85.3166 114.023 85.3722 114.107 85.4099 114.199C85.4477 114.291 85.4669 114.389 85.4665 114.489Z" fill="#E0E0E0"/>
<path d="M100.225 122.88C100.225 123.03 100.181 123.177 100.099 123.302C100.016 123.428 99.8974 123.525 99.7589 123.583C99.6203 123.641 99.4677 123.657 99.3204 123.628C99.1731 123.599 99.0377 123.527 98.9313 123.421C98.8249 123.315 98.7523 123.18 98.7228 123.033C98.6933 122.885 98.7081 122.733 98.7654 122.594C98.8227 122.455 98.9199 122.337 99.0447 122.253C99.1695 122.17 99.3163 122.125 99.4664 122.125C99.667 122.125 99.8594 122.204 100.002 122.346C100.144 122.488 100.224 122.68 100.225 122.88Z" fill="#E0E0E0"/>
<path d="M77.2073 136.301L74.1929 153.261H75.8889L81.4505 136.301H77.2073Z" fill="#E0E0E0"/>
<path d="M124.641 136.301L127.162 153.29H125.466L120.397 136.301H124.641Z" fill="#E0E0E0"/>
<path d="M135.965 136.301L138.823 153.29H137.124L131.722 136.301H135.965Z" fill="#E0E0E0"/>
<path d="M100.174 130.51C100.174 130.66 100.129 130.807 100.045 130.932C99.962 131.057 99.8434 131.154 99.7046 131.211C99.5659 131.269 99.4132 131.283 99.266 131.254C99.1188 131.224 98.9837 131.152 98.8777 131.045C98.7718 130.939 98.6998 130.804 98.6709 130.656C98.642 130.509 98.6575 130.356 98.7154 130.218C98.7733 130.079 98.871 129.961 98.9961 129.878C99.1213 129.795 99.2682 129.751 99.4183 129.752C99.5178 129.752 99.6162 129.772 99.7081 129.81C99.7999 129.848 99.8833 129.904 99.9535 129.974C100.024 130.045 100.079 130.128 100.117 130.22C100.155 130.312 100.174 130.411 100.174 130.51Z" fill="#E0E0E0"/>
<path d="M71.7289 126.6H127.22C127.24 126.6 127.258 126.592 127.272 126.578C127.286 126.564 127.294 126.545 127.294 126.526C127.294 126.506 127.286 126.487 127.272 126.473C127.258 126.459 127.24 126.451 127.22 126.451H71.7289C71.7094 126.451 71.6906 126.459 71.6768 126.473C71.663 126.487 71.6553 126.506 71.6553 126.526C71.6553 126.545 71.663 126.564 71.6768 126.578C71.6906 126.592 71.7094 126.6 71.7289 126.6Z" fill="#E0E0E0"/>
<path d="M111.593 100.54L111.557 96.9336L93.8451 97.1107L93.8812 100.717L111.593 100.54Z" fill="#E0E0E0"/>
<path d="M113.227 109.201L113.198 103.598L93.4572 103.701L93.4866 109.304L113.227 109.201Z" fill="#F5F5F5"/>
<path d="M109.428 109.168C109.333 108.238 109.301 107.302 109.332 106.368C109.301 105.432 109.333 104.496 109.428 103.564C109.483 103.564 109.524 104.819 109.524 106.368C109.524 107.916 109.483 109.168 109.428 109.168Z" fill="#E0E0E0"/>
<path d="M110.26 109.168C110.165 108.238 110.133 107.302 110.164 106.368C110.133 105.432 110.165 104.496 110.26 103.564C110.315 103.564 110.356 104.819 110.356 106.368C110.356 107.916 110.311 109.168 110.26 109.168Z" fill="#E0E0E0"/>
<path d="M96.4617 109.168C96.4073 109.168 96.3657 107.913 96.3657 106.368C96.3657 104.822 96.4073 103.564 96.4617 103.564C96.5565 104.496 96.5885 105.432 96.5577 106.368C96.5885 107.302 96.5564 108.238 96.4617 109.168Z" fill="#E0E0E0"/>
<path d="M97.2904 109.168C97.1957 108.238 97.1637 107.302 97.1944 106.368C97.1636 105.432 97.1957 104.496 97.2904 103.564C97.3448 103.564 97.3864 104.819 97.3864 106.368C97.3864 107.916 97.3448 109.168 97.2904 109.168Z" fill="#E0E0E0"/>
<path d="M99.1016 106.458C99.1016 106.403 101.092 106.361 103.55 106.361C106.007 106.361 107.998 106.403 107.998 106.458C107.998 106.512 106.004 106.554 103.55 106.554C101.095 106.554 99.1016 106.512 99.1016 106.458Z" fill="#E0E0E0"/>
<path d="M120.64 103.571L120.622 99.9648L96.2603 100.092L96.2792 103.699L120.64 103.571Z" fill="#EBEBEB"/>
<path d="M117.156 103.125C116.924 103.128 116.697 103.062 116.503 102.936C116.309 102.81 116.157 102.628 116.066 102.415C115.975 102.202 115.949 101.967 115.993 101.739C116.036 101.511 116.146 101.302 116.309 101.137C116.471 100.972 116.679 100.859 116.906 100.813C117.133 100.766 117.369 100.789 117.583 100.876C117.798 100.964 117.981 101.114 118.11 101.306C118.239 101.499 118.308 101.725 118.308 101.957C118.309 102.109 118.281 102.26 118.223 102.402C118.166 102.543 118.082 102.672 117.975 102.78C117.868 102.889 117.74 102.975 117.6 103.034C117.459 103.093 117.309 103.124 117.156 103.125Z" fill="#E0E0E0"/>
<path d="M113.991 102.319V101.6H97.684V102.319H113.991Z" fill="#E0E0E0"/>
<path d="M146.375 8.03711H123.847V31.5219H146.375V8.03711Z" fill="#E0E0E0"/>
<path d="M144.849 8.03711H122.321V31.5219H144.849V8.03711Z" fill="#FAFAFA"/>
<path d="M144.855 31.5256H122.314V8.03125H144.855V31.5256ZM122.327 31.5256H144.839V8.04405H122.327V31.5256Z" fill="#E0E0E0"/>
<path d="M141.819 11.1934H125.348V28.3614H141.819V11.1934Z" fill="white"/>
<path d="M125.348 28.4785C125.231 28.6514 125.095 28.8103 124.942 28.9521C124.679 29.2305 124.302 29.5921 123.895 30.0145C123.489 30.4369 123.098 30.7857 122.82 31.0449C122.676 31.1937 122.516 31.3267 122.343 31.4417C122.455 31.2666 122.588 31.1064 122.74 30.9649C123.002 30.6897 123.38 30.3249 123.79 29.9025C124.199 29.4801 124.586 29.1281 124.868 28.8721C125.013 28.7235 125.174 28.5915 125.348 28.4785Z" fill="#E0E0E0"/>
<path d="M141.818 28.4336C141.991 28.5505 142.15 28.6868 142.292 28.84C142.57 29.1024 142.932 29.48 143.354 29.8864C143.777 30.2928 144.126 30.6832 144.385 30.9648C144.535 31.1061 144.667 31.2651 144.778 31.4384C144.606 31.3241 144.448 31.1898 144.308 31.0384C144.033 30.776 143.668 30.3984 143.246 29.9888C142.823 29.5792 142.471 29.192 142.215 28.9104C142.065 28.7675 141.932 28.6075 141.818 28.4336Z" fill="#E0E0E0"/>
<path d="M141.773 11.2405C141.89 11.0676 142.027 10.9087 142.18 10.7669C142.442 10.4885 142.82 10.1269 143.226 9.70454C143.633 9.28214 144.023 8.93334 144.305 8.67414C144.448 8.526 144.607 8.39304 144.778 8.27734C144.665 8.45104 144.529 8.60917 144.375 8.74774C144.113 9.02614 143.735 9.40374 143.325 9.81334C142.916 10.2229 142.529 10.5877 142.247 10.8437C142.105 10.994 141.946 11.1271 141.773 11.2405Z" fill="#E0E0E0"/>
<path d="M125.3 11.2821C125.128 11.1661 124.971 11.0308 124.83 10.8789C124.554 10.6133 124.19 10.2389 123.77 9.82934C123.351 9.41974 122.996 9.03574 122.74 8.75414C122.588 8.61273 122.455 8.4525 122.343 8.27734C122.514 8.39585 122.672 8.53207 122.814 8.68374C123.092 8.94614 123.454 9.32374 123.876 9.73334C124.298 10.1429 124.65 10.5301 124.91 10.8117C125.058 10.9522 125.189 11.1102 125.3 11.2821Z" fill="#E0E0E0"/>
<path d="M141.773 28.364C141.773 28.364 141.773 28.3352 141.773 28.2808C141.773 28.2264 141.773 28.1432 141.773 28.0408C141.773 27.8232 141.773 27.516 141.773 27.1128C141.773 26.3 141.773 25.116 141.754 23.6152C141.754 20.6072 141.738 16.3224 141.722 11.1928L141.786 11.2568H125.364L125.437 11.1832C125.437 17.4872 125.437 23.3816 125.437 28.3544L125.373 28.2904L137.268 28.3224H140.609H141.492H141.719C141.746 28.3188 141.772 28.3188 141.799 28.3224H141.505H140.634H137.306L125.373 28.3544H125.3V28.2936C125.3 23.3208 125.3 17.4136 125.3 11.1224V11.0488H125.377H141.799H141.863V11.1992C141.863 16.3448 141.837 20.6424 141.831 23.66C141.831 25.1576 141.831 26.3352 141.815 27.1448C141.815 27.5416 141.815 27.8488 141.815 28.06C141.815 28.1592 141.815 28.236 141.815 28.2936C141.805 28.319 141.791 28.3427 141.773 28.364Z" fill="#E0E0E0"/>
<path d="M136.334 17.0293H130.836V22.5269H136.334V17.0293Z" fill="#EBEBEB"/>
<path d="M113.169 17.5449H42.5317V88.1817H113.169V17.5449Z" fill="white"/>
<path d="M113.169 88.1827C113.169 87.5683 113.14 59.8947 113.095 17.5459L113.169 17.6195H42.5383L42.6215 17.5363C42.6215 43.4019 42.6215 67.6451 42.6215 88.1731L42.5479 88.1027L113.185 88.1731L42.5479 88.2467H42.4775V88.1731C42.4775 67.6451 42.4775 43.4019 42.4775 17.5363V17.4531H42.5671H113.198H113.271V17.5235C113.198 59.8947 113.169 87.5683 113.169 88.1827Z" fill="#263238"/>
<path d="M104.001 50.5312H78.5288C77.7378 50.5312 76.9792 50.217 76.4199 49.6577C75.8606 49.0984 75.5464 48.3398 75.5464 47.5488C75.5464 46.7578 75.8606 45.9992 76.4199 45.4399C76.9792 44.8806 77.7378 44.5664 78.5288 44.5664H104.001C104.792 44.5664 105.551 44.8805 106.111 45.4397C106.671 45.999 106.986 46.7575 106.986 47.5488C106.986 48.3401 106.671 49.0987 106.111 49.6579C105.551 50.2171 104.792 50.5312 104.001 50.5312Z" fill="#FF81AE"/>
<g opacity="0.6">
<path d="M104.001 50.5312H78.5288C77.7378 50.5312 76.9792 50.217 76.4199 49.6577C75.8606 49.0984 75.5464 48.3398 75.5464 47.5488C75.5464 46.7578 75.8606 45.9992 76.4199 45.4399C76.9792 44.8806 77.7378 44.5664 78.5288 44.5664H104.001C104.792 44.5664 105.551 44.8805 106.111 45.4397C106.671 45.999 106.986 46.7575 106.986 47.5488C106.986 48.3401 106.671 49.0987 106.111 49.6579C105.551 50.2171 104.792 50.5312 104.001 50.5312Z" fill="white"/>
</g>
<path d="M93.0024 58.8332H50.164C49.3728 58.8324 48.6142 58.5175 48.055 57.9576C47.4958 57.3978 47.1816 56.6389 47.1816 55.8476C47.1816 55.0567 47.4959 54.2981 48.0552 53.7388C48.6145 53.1795 49.3731 52.8652 50.164 52.8652H93.0024C93.7937 52.8652 94.5526 53.1793 95.1124 53.7386C95.6723 54.2978 95.9872 55.0564 95.988 55.8476C95.988 56.6395 95.6735 57.3989 95.1136 57.9588C94.5537 58.5187 93.7943 58.8332 93.0024 58.8332Z" fill="#FF81AE"/>
<g opacity="0.6">
<path d="M93.0024 58.8332H50.164C49.3728 58.8324 48.6142 58.5175 48.055 57.9576C47.4958 57.3978 47.1816 56.6389 47.1816 55.8476C47.1816 55.0567 47.4959 54.2981 48.0552 53.7388C48.6145 53.1795 49.3731 52.8652 50.164 52.8652H93.0024C93.7937 52.8652 94.5526 53.1793 95.1124 53.7386C95.6723 54.2978 95.9872 55.0564 95.988 55.8476C95.988 56.6395 95.6735 57.3989 95.1136 57.9588C94.5537 58.5187 93.7943 58.8332 93.0024 58.8332Z" fill="white"/>
</g>
<path d="M80.0034 49.545C81.1017 48.2869 80.9721 46.3766 79.714 45.2782C78.4558 44.1799 76.5455 44.3095 75.4472 45.5676C74.3489 46.8258 74.4784 48.7361 75.7366 49.8344C76.9947 50.9327 78.905 50.8032 80.0034 49.545Z" fill="#FF81AE"/>
<path d="M97.8491 56.5468C98.2345 54.9218 97.2295 53.292 95.6045 52.9067C93.9794 52.5213 92.3497 53.5263 91.9643 55.1513C91.579 56.7764 92.584 58.4061 94.209 58.7915C95.8341 59.1768 97.4638 58.1718 97.8491 56.5468Z" fill="#FF81AE"/>
<path d="M49.7802 27.5688C49.7416 27.5686 49.7043 27.555 49.6746 27.5304L48.8202 26.7656C48.8043 26.752 48.7913 26.7353 48.782 26.7166C48.7727 26.698 48.7672 26.6776 48.7658 26.6568C48.7648 26.635 48.7683 26.6133 48.776 26.5929C48.7837 26.5726 48.7955 26.554 48.8106 26.5384L49.6618 25.62C49.6917 25.5906 49.7319 25.5742 49.7738 25.5742C49.8157 25.5742 49.8559 25.5906 49.8858 25.62C49.9008 25.6348 49.9127 25.6525 49.9208 25.672C49.9289 25.6915 49.9331 25.7124 49.9331 25.7336C49.9331 25.7547 49.9289 25.7756 49.9208 25.7951C49.9127 25.8146 49.9008 25.8323 49.8858 25.8472L49.1402 26.6376L49.873 27.2776C49.9025 27.308 49.919 27.3487 49.919 27.3912C49.919 27.4336 49.9025 27.4743 49.873 27.5048C49.8506 27.5364 49.8177 27.5591 49.7802 27.5688Z" fill="#263238"/>
<path d="M106.42 27.5685C106.4 27.5691 106.38 27.5658 106.361 27.5586C106.343 27.5515 106.325 27.5407 106.311 27.5269C106.296 27.512 106.284 27.4943 106.276 27.4748C106.268 27.4553 106.264 27.4344 106.264 27.4133C106.264 27.3922 106.268 27.3712 106.276 27.3517C106.284 27.3322 106.296 27.3146 106.311 27.2997L107.06 26.5029L106.33 25.8629C106.313 25.8492 106.299 25.8322 106.289 25.813C106.279 25.7937 106.273 25.7725 106.271 25.7508C106.269 25.729 106.272 25.7072 106.279 25.6865C106.286 25.6659 106.297 25.6469 106.312 25.6307C106.326 25.6146 106.344 25.6016 106.364 25.5925C106.384 25.5835 106.405 25.5786 106.427 25.5782C106.449 25.5777 106.471 25.5817 106.491 25.59C106.511 25.5982 106.529 25.6105 106.545 25.6261L107.38 26.3717C107.412 26.4004 107.432 26.4406 107.434 26.4837C107.435 26.5259 107.42 26.567 107.393 26.5989L106.548 27.5205C106.532 27.5382 106.512 27.5519 106.49 27.5602C106.467 27.5686 106.443 27.5714 106.42 27.5685Z" fill="#263238"/>
<path d="M76.5 27.5015V25.943L75.7352 27.223H75.4664L74.7048 25.975V27.4983H74.1416V24.9062H74.6408L75.6008 26.5063L76.5608 24.9062H77.0536V27.5015H76.5Z" fill="#263238"/>
<path d="M79.4022 26.362V27.5012H78.8614V27.2516C78.7949 27.3468 78.7038 27.422 78.5978 27.4694C78.4918 27.5167 78.375 27.5344 78.2598 27.5204C77.7926 27.5204 77.5142 27.2612 77.5142 26.9156C77.5142 26.57 77.7638 26.3204 78.3718 26.3204H78.8326C78.8326 26.0708 78.6822 25.9268 78.3718 25.9268C78.1648 25.925 77.9627 25.9901 77.7958 26.1124L77.591 25.7092C77.8464 25.5452 78.1451 25.4616 78.4486 25.4692C79.0502 25.4788 79.4022 25.7604 79.4022 26.362ZM78.8262 26.8804V26.6756H78.4294C78.1574 26.6756 78.0742 26.778 78.0742 26.9092C78.0742 27.0404 78.1958 27.1524 78.3942 27.1524C78.4858 27.1594 78.5773 27.1367 78.655 27.0877C78.7328 27.0387 78.7928 26.9661 78.8262 26.8804Z" fill="#263238"/>
<path d="M81.8696 25.5078L80.9672 27.623C80.925 27.8088 80.8196 27.9742 80.6691 28.0909C80.5185 28.2077 80.332 28.2685 80.1416 28.263C79.9407 28.2671 79.7444 28.2028 79.5848 28.0806L79.796 27.671C79.8854 27.7478 79.9982 27.7918 80.116 27.7958C80.276 27.7958 80.3656 27.7254 80.436 27.5462V27.5302L79.5752 25.5206H80.18L80.74 26.8742L81.3032 25.5206L81.8696 25.5078Z" fill="#263238"/>
<path d="M112.295 33.2559C112.295 33.3011 97.0152 33.3399 78.1672 33.3399C59.3192 33.3399 44.02 33.3011 44.02 33.2559C44.02 33.2107 59.3 33.1719 78.1544 33.1719C97.0088 33.1719 112.295 33.2074 112.295 33.2559Z" fill="#E0E0E0"/>
<path d="M50.3785 39.77V38.7012L49.8569 39.5812H49.6713L49.1401 38.7204V39.7668H48.7529V37.9844H49.0921L49.7609 39.0916L50.4009 37.9844H50.7401V39.7668L50.3785 39.77Z" fill="#263238"/>
<path d="M51.0598 39.0857C51.0496 38.9344 51.0851 38.7836 51.1617 38.6528C51.2383 38.522 51.3526 38.4172 51.4895 38.3522C51.6265 38.2872 51.7798 38.265 51.9296 38.2883C52.0794 38.3117 52.2188 38.3796 52.3294 38.4832C52.4401 38.5868 52.517 38.7213 52.5502 38.8693C52.5834 39.0172 52.5713 39.1717 52.5154 39.3126C52.4596 39.4536 52.3626 39.5745 52.2371 39.6596C52.1116 39.7446 51.9635 39.79 51.8118 39.7897C51.7154 39.7963 51.6187 39.783 51.5277 39.7505C51.4366 39.7181 51.3533 39.6673 51.2827 39.6013C51.2122 39.5352 51.156 39.4554 51.1176 39.3667C51.0793 39.278 51.0596 39.1823 51.0598 39.0857ZM52.1606 39.0857C52.1551 39.0182 52.1299 38.9538 52.0884 38.9004C52.0468 38.8469 51.9906 38.8067 51.9266 38.7847C51.8626 38.7627 51.7935 38.7597 51.7278 38.7763C51.6622 38.7928 51.6028 38.8281 51.5568 38.8778C51.5109 38.9276 51.4804 38.9896 51.4691 39.0564C51.4578 39.1231 51.4662 39.1917 51.4933 39.2538C51.5203 39.3159 51.5648 39.3687 51.6214 39.4059C51.678 39.4431 51.7441 39.4631 51.8118 39.4633C51.8603 39.464 51.9084 39.4544 51.9529 39.4353C51.9975 39.4161 52.0375 39.3878 52.0704 39.3522C52.1033 39.3166 52.1283 39.2745 52.1439 39.2286C52.1594 39.1826 52.1651 39.134 52.1606 39.0857Z" fill="#263238"/>
<path d="M54.2282 38.986V39.7694H53.8314V39.0403C53.8314 38.8197 53.7322 38.7205 53.5562 38.7205C53.3802 38.7205 53.2362 38.8356 53.2362 39.0883V39.7662H52.8394V38.4007H53.2202V38.5606C53.2783 38.5004 53.3486 38.4533 53.4264 38.4225C53.5042 38.3916 53.5877 38.3776 53.6714 38.3815C53.7497 38.3776 53.828 38.3909 53.9007 38.4205C53.9733 38.4502 54.0385 38.4955 54.0917 38.5532C54.1448 38.6109 54.1846 38.6796 54.2082 38.7544C54.2318 38.8292 54.2386 38.9082 54.2282 38.986Z" fill="#263238"/>
<path d="M58.3622 38.3243H57.7798V37.9883H59.3318V38.3243H58.7622V39.7707H58.3494L58.3622 38.3243Z" fill="#263238"/>
<path d="M60.887 38.4004V39.7691H60.5094V39.606C60.4563 39.665 60.3911 39.7119 60.3182 39.7434C60.2453 39.7748 60.1664 39.7901 60.087 39.7883C60.0058 39.7952 59.9241 39.7839 59.8479 39.755C59.7717 39.7262 59.703 39.6806 59.6468 39.6217C59.5906 39.5628 59.5483 39.492 59.5232 39.4145C59.498 39.3371 59.4906 39.255 59.5014 39.1743V38.4004H59.8982V39.1135C59.8982 39.3438 60.0006 39.4333 60.1734 39.4333C60.3462 39.4333 60.4934 39.315 60.4934 39.0624V38.4004H60.887Z" fill="#263238"/>
<path d="M62.5798 39.1966H61.5558C61.5769 39.2817 61.628 39.3563 61.6997 39.4068C61.7714 39.4573 61.8589 39.4803 61.9462 39.4716C62.01 39.474 62.0735 39.4633 62.1329 39.4402C62.1924 39.4171 62.2465 39.382 62.2918 39.3373L62.503 39.5675C62.4302 39.643 62.3418 39.7018 62.244 39.7399C62.1463 39.778 62.0414 39.7945 61.9366 39.7882C61.8381 39.798 61.7387 39.7871 61.6446 39.7563C61.5506 39.7254 61.464 39.6752 61.3905 39.609C61.317 39.5428 61.2582 39.4619 61.2177 39.3716C61.1773 39.2813 61.1562 39.1836 61.1558 39.0846C61.1544 38.9895 61.1725 38.8951 61.209 38.8073C61.2454 38.7194 61.2995 38.6399 61.3678 38.5737C61.4362 38.5075 61.5174 38.456 61.6064 38.4223C61.6954 38.3887 61.7904 38.3735 61.8854 38.3779C61.9802 38.3729 62.075 38.3878 62.1636 38.4216C62.2523 38.4555 62.3328 38.5075 62.4001 38.5744C62.4673 38.6414 62.5198 38.7216 62.554 38.81C62.5883 38.8985 62.6036 38.9931 62.599 39.0878C62.599 39.1198 62.5798 39.1614 62.5798 39.1966ZM61.5398 38.9631H62.215C62.2015 38.8834 62.1602 38.811 62.0984 38.7589C62.0366 38.7067 61.9583 38.678 61.8774 38.678C61.7965 38.678 61.7182 38.7067 61.6564 38.7589C61.5946 38.811 61.5533 38.8834 61.5398 38.9631Z" fill="#263238"/>
<path d="M60.66 46.5598V48.3422H60.4776V46.7198H60.0552V46.5566L60.66 46.5598Z" fill="black"/>
<path d="M69.7321 48.1787V48.3419H68.4841V48.2107L69.2233 47.4875C69.4249 47.2891 69.4633 47.1675 69.4633 47.0459C69.4633 46.8411 69.3193 46.7259 69.0473 46.7259C68.9565 46.7202 68.8656 46.7352 68.7814 46.7695C68.6972 46.8039 68.6218 46.8568 68.5609 46.9243L68.4297 46.8123C68.5107 46.7248 68.6101 46.6564 68.7208 46.6121C68.8315 46.5679 68.9507 46.5488 69.0697 46.5563C69.4281 46.5563 69.6585 46.7419 69.6585 47.0395C69.6538 47.148 69.6253 47.2541 69.575 47.3504C69.5247 47.4466 69.4538 47.5306 69.3673 47.5963L68.7593 48.1915L69.7321 48.1787Z" fill="black"/>
<path d="M78.3303 47.8309C78.3303 48.1285 78.1159 48.3557 77.6903 48.3557C77.4558 48.3642 77.2269 48.283 77.0503 48.1285L77.1399 47.9845C77.2895 48.1221 77.4871 48.1956 77.6903 48.1893C77.9847 48.1893 78.1479 48.0517 78.1479 47.8309C78.1479 47.6101 77.9975 47.4757 77.6679 47.4757H77.5399V47.3413L78.0327 46.7237H77.1239V46.5605H78.2599V46.6917L77.7543 47.3317C78.1383 47.3605 78.3303 47.5461 78.3303 47.8309Z" fill="black"/>
<path d="M87.1753 47.8725H86.8169V48.3429H86.6345V47.8725H85.6201V47.7413L86.5801 46.5605H86.7817L85.8729 47.7093H86.6473V47.2997H86.8233V47.7093H87.1817L87.1753 47.8725Z" fill="black"/>
<path d="M52.1097 55.2257V55.3601L51.3801 57.0081H51.1817L51.9145 55.3889H50.9993V55.7089H50.8169V55.2129L52.1097 55.2257Z" fill="black"/>
<path d="M60.8934 56.5121C60.8934 56.8321 60.6246 57.0241 60.199 57.0241C59.7734 57.0241 59.5142 56.8257 59.5142 56.5121C59.5129 56.411 59.5462 56.3125 59.6084 56.2328C59.6707 56.1531 59.7582 56.097 59.8566 56.0737C59.7742 56.0474 59.7026 55.9952 59.6524 55.9248C59.6022 55.8545 59.5762 55.7697 59.5782 55.6833C59.5782 55.3921 59.8246 55.2129 60.199 55.2129C60.5734 55.2129 60.839 55.3921 60.839 55.6833C60.8401 55.7704 60.8129 55.8555 60.7616 55.9259C60.7102 55.9963 60.6375 56.0481 60.5542 56.0737C60.6517 56.0981 60.7382 56.1546 60.7997 56.2341C60.8613 56.3137 60.8942 56.4116 60.8934 56.5121ZM60.7046 56.5121C60.7046 56.2945 60.5158 56.1569 60.199 56.1569C59.8822 56.1569 59.6998 56.2945 59.6998 56.5121C59.6998 56.7297 59.8854 56.8705 60.199 56.8705C60.5126 56.8705 60.7046 56.7297 60.7046 56.5089V56.5121ZM60.199 56.0001C60.4774 56.0001 60.6438 55.8785 60.6438 55.6801C60.6438 55.4817 60.4678 55.3601 60.199 55.3601C59.9302 55.3601 59.7606 55.4817 59.7606 55.6801C59.7606 55.8785 59.9238 56.0001 60.199 56.0001Z" fill="black"/>
<path d="M69.5784 56.1021C69.5784 56.7069 69.2584 57.0237 68.7656 57.0237C68.6184 57.03 68.4723 56.9957 68.3432 56.9245L68.4168 56.7773C68.521 56.8395 68.6413 56.8695 68.7624 56.8637C69.1464 56.8637 69.4024 56.6173 69.4024 56.1309C69.4024 56.0925 69.4024 56.0413 69.4024 55.9869C69.3529 56.0882 69.2745 56.1726 69.1771 56.2295C69.0798 56.2865 68.9678 56.3134 68.8552 56.3069C68.7801 56.315 68.704 56.3072 68.6321 56.2841C68.5601 56.2609 68.4938 56.2229 68.4374 56.1726C68.381 56.1222 68.3358 56.0606 68.3047 55.9917C68.2736 55.9228 68.2573 55.8481 68.2568 55.7725C68.2574 55.6956 68.2739 55.6195 68.3055 55.5493C68.337 55.4791 68.3829 55.4163 68.4401 55.3648C68.4973 55.3133 68.5646 55.2743 68.6378 55.2503C68.7109 55.2263 68.7882 55.2178 68.8648 55.2253C69.3224 55.2125 69.5784 55.5389 69.5784 56.1021ZM69.3256 55.7469C69.3256 55.5517 69.1624 55.3661 68.8552 55.3661C68.8006 55.3598 68.7453 55.3651 68.6928 55.3817C68.6404 55.3983 68.592 55.4257 68.5509 55.4623C68.5098 55.4988 68.4769 55.5437 68.4544 55.5938C68.4318 55.644 68.4201 55.6983 68.42 55.7533C68.42 55.9869 68.5928 56.1373 68.868 56.1373C68.924 56.1435 68.9807 56.1382 69.0346 56.1216C69.0885 56.1051 69.1384 56.0776 69.1812 56.0411C69.2241 56.0045 69.259 55.9595 69.2839 55.9089C69.3087 55.8584 69.3229 55.8032 69.3256 55.7469Z" fill="black"/>
<path d="M76.98 55.2266V57.009H76.7976V55.3898H76.3784V55.2266H76.98Z" fill="black"/>
<path d="M77.4185 56.1185C77.4185 55.5489 77.7161 55.2129 78.1289 55.2129C78.5417 55.2129 78.8425 55.5489 78.8425 56.1185C78.8425 56.6881 78.5417 57.0241 78.1289 57.0241C77.7161 57.0241 77.4185 56.6849 77.4185 56.1185ZM78.6537 56.1185C78.6537 55.6417 78.4393 55.3793 78.1289 55.3793C77.8185 55.3793 77.6041 55.6417 77.6041 56.1185C77.6041 56.5953 77.8185 56.8545 78.1289 56.8545C78.4393 56.8545 78.6537 56.5921 78.6537 56.1185Z" fill="black"/>
<path d="M86.1093 55.2266V57.009H85.9397V55.3898H85.5205V55.2266H86.1093Z" fill="black"/>
<path d="M87.0279 55.2266V57.009H86.8455V55.3898H86.4263V55.2266H87.0279Z" fill="black"/>
<path d="M94.5801 55.2266V57.009H94.3977V55.3898H93.9785V55.2266H94.5801Z" fill="black"/>
<path d="M96.2213 56.8458V57.009H94.9733V56.8778L95.7125 56.1546C95.9141 55.9562 95.9525 55.8346 95.9525 55.713C95.9525 55.5082 95.8053 55.393 95.5333 55.393C95.4426 55.3878 95.3519 55.4029 95.2677 55.4373C95.1836 55.4716 95.1082 55.5242 95.0469 55.5914L94.9189 55.4794C95 55.3921 95.0995 55.3241 95.2103 55.2803C95.321 55.2366 95.4402 55.2182 95.5589 55.2266C95.9205 55.2266 96.1477 55.409 96.1477 55.7066C96.144 55.8153 96.1159 55.9217 96.0655 56.0181C96.0151 56.1145 95.9437 56.1983 95.8565 56.2634L95.2517 56.8586L96.2213 56.8458Z" fill="black"/>
<path d="M103.319 55.2266V57.009H103.134V55.3898H102.714V55.2266H103.319Z" fill="black"/>
<path d="M104.923 56.4968C104.923 56.7944 104.705 57.0248 104.283 57.0248C104.048 57.0331 103.818 56.9506 103.643 56.7944L103.729 56.6504C103.88 56.7879 104.078 56.8613 104.283 56.8552C104.577 56.8552 104.74 56.7176 104.74 56.4968C104.74 56.276 104.59 56.1448 104.26 56.1448H104.132V56.0008L104.625 55.38H103.716V55.2168H104.859V55.3608L104.356 56.0008C104.731 56.0008 104.923 56.212 104.923 56.4968Z" fill="black"/>
<path d="M51.3445 63.8443V65.6267H51.1621V64.0011H50.7397V63.8379L51.3445 63.8443Z" fill="black"/>
<path d="M53.2997 65.159H52.9445V65.6262H52.7621V65.159H51.7573V65.0246L52.7173 63.8438H52.9189L52.0101 64.9958H52.7813V64.583H52.9605V64.9958H53.2997V65.159Z" fill="black"/>
<path d="M60.1736 63.8443V65.6267H59.988V64.0011H59.5688V63.8379L60.1736 63.8443Z" fill="black"/>
<path d="M61.8054 65.1014C61.8054 65.4054 61.5942 65.6422 61.1654 65.6422C60.9303 65.6508 60.701 65.5682 60.5254 65.4118L60.615 65.2678C60.7625 65.4047 60.9578 65.4782 61.159 65.4726C61.463 65.4726 61.623 65.3254 61.623 65.111C61.623 64.8966 61.4822 64.7366 61.0278 64.7366H60.6598L60.7494 63.8438H61.7094V64.0006H60.8934L60.8326 64.5702H61.063C61.6198 64.5766 61.8054 64.7878 61.8054 65.1014Z" fill="black"/>
<path d="M68.8233 63.8443V65.6267H68.6409V64.0011H68.2217V63.8379L68.8233 63.8443Z" fill="black"/>
<path d="M70.5798 65.0951C70.5788 65.1719 70.5619 65.2477 70.5302 65.3177C70.4985 65.3877 70.4526 65.4503 70.3955 65.5017C70.3384 65.5531 70.2713 65.5922 70.1984 65.6163C70.1254 65.6405 70.0483 65.6494 69.9718 65.6423C69.4982 65.6423 69.2422 65.3223 69.2422 64.7495C69.2422 64.1767 69.5622 63.8311 70.055 63.8311C70.2019 63.8237 70.3481 63.8569 70.4774 63.9271L70.4038 64.0743C70.2988 64.0145 70.1789 63.9856 70.0582 63.9911C69.6742 63.9911 69.4182 64.2375 69.4182 64.7207C69.4182 64.7623 69.4182 64.8103 69.4182 64.8647C69.4695 64.7667 69.5483 64.6857 69.6449 64.6317C69.7415 64.5777 69.8518 64.5531 69.9622 64.5607C70.0389 64.5492 70.1172 64.5544 70.1918 64.5759C70.2663 64.5975 70.3353 64.635 70.394 64.6858C70.4526 64.7366 70.4996 64.7994 70.5317 64.8701C70.5638 64.9407 70.5802 65.0175 70.5798 65.0951ZM70.4006 65.0951C70.4006 64.8615 70.2278 64.7111 69.9526 64.7111C69.8966 64.7049 69.8399 64.7103 69.786 64.7268C69.7322 64.7434 69.6823 64.7708 69.6394 64.8074C69.5965 64.8439 69.5616 64.8889 69.5367 64.9395C69.5119 64.9901 69.4977 65.0452 69.495 65.1015C69.495 65.2967 69.655 65.4823 69.9654 65.4823C70.0202 65.4896 70.076 65.4851 70.129 65.4691C70.182 65.4532 70.231 65.4262 70.2728 65.3899C70.3145 65.3536 70.3481 65.3088 70.3712 65.2585C70.3944 65.2083 70.4066 65.1536 70.407 65.0983L70.4006 65.0951Z" fill="black"/>
<path d="M77.5528 63.8443V65.6267H77.3704V64.0011H76.9512V63.8379L77.5528 63.8443Z" fill="black"/>
<path d="M79.2359 63.8429V63.9741L78.4903 65.6253H78.2919L79.0247 64.0061H78.1095V64.3261H77.9399V63.8301L79.2359 63.8429Z" fill="black"/>
<path d="M86.1958 63.8443V65.6267H86.0134V64.0011H85.5942V63.8379L86.1958 63.8443Z" fill="black"/>
<path d="M87.9911 65.1293C87.9911 65.4493 87.7222 65.6413 87.2998 65.6413C86.8774 65.6413 86.6119 65.4429 86.6119 65.1293C86.6106 65.0282 86.6438 64.9296 86.7061 64.85C86.7683 64.7703 86.8558 64.7142 86.9543 64.6909C86.8719 64.6646 86.8003 64.6124 86.7501 64.542C86.6999 64.4716 86.6738 64.3869 86.6758 64.3005C86.6758 64.0093 86.9222 63.8301 87.2998 63.8301C87.6774 63.8301 87.9398 64.0093 87.9398 64.3005C87.9409 64.3876 87.9138 64.4727 87.8624 64.5431C87.8111 64.6134 87.7383 64.6653 87.655 64.6909C87.752 64.7159 87.8377 64.7727 87.8986 64.8521C87.9595 64.9316 87.9921 65.0292 87.9911 65.1293ZM87.8023 65.1293C87.8023 64.9117 87.6134 64.7741 87.2998 64.7741C86.9862 64.7741 86.7974 64.9117 86.7974 65.1293C86.7974 65.3469 86.983 65.4877 87.2998 65.4877C87.6166 65.4877 87.8023 65.3469 87.8023 65.1261V65.1293ZM87.2998 64.6397C87.575 64.6397 87.7415 64.5149 87.7415 64.3197C87.7415 64.1245 87.5654 63.9997 87.2998 63.9997C87.0342 63.9997 86.8582 64.1213 86.8582 64.3197C86.8582 64.5181 87.0214 64.6397 87.2998 64.6397Z" fill="black"/>
<path d="M94.9385 63.8443V65.6267H94.7561V64.0011H94.3369V63.8379L94.9385 63.8443Z" fill="black"/>
<path d="M96.6505 64.7213C96.6505 65.3261 96.3305 65.6429 95.8345 65.6429C95.6873 65.6492 95.5411 65.6149 95.4121 65.5437L95.4857 65.3965C95.5904 65.4574 95.7102 65.4874 95.8313 65.4829C96.2153 65.4829 96.4713 65.2333 96.4713 64.7501C96.474 64.7021 96.474 64.654 96.4713 64.6061C96.4219 64.7068 96.344 64.7909 96.2473 64.8478C96.1506 64.9047 96.0393 64.9319 95.9273 64.9261C95.852 64.9341 95.7758 64.9263 95.7037 64.9032C95.6315 64.8801 95.565 64.8422 95.5084 64.7919C95.4517 64.7415 95.4062 64.68 95.3748 64.6111C95.3433 64.5421 95.3266 64.4674 95.3257 64.3917C95.3262 64.3147 95.3428 64.2387 95.3743 64.1685C95.4059 64.0983 95.4517 64.0354 95.5089 63.9839C95.5662 63.9324 95.6335 63.8934 95.7066 63.8694C95.7797 63.8454 95.8571 63.8369 95.9337 63.8445C96.3913 63.8317 96.6505 64.1581 96.6505 64.7213ZM96.3977 64.3661C96.3977 64.1709 96.2345 63.9853 95.9273 63.9853C95.8727 63.979 95.8173 63.9843 95.7649 64.0008C95.7124 64.0174 95.6641 64.0449 95.623 64.0814C95.5819 64.118 95.549 64.1628 95.5264 64.213C95.5039 64.2631 95.4922 64.3175 95.4921 64.3725C95.4921 64.6061 95.6649 64.7565 95.9401 64.7565C95.9961 64.7627 96.0528 64.7573 96.1067 64.7408C96.1605 64.7242 96.2104 64.6968 96.2533 64.6602C96.2962 64.6236 96.3311 64.5787 96.3559 64.5281C96.3808 64.4775 96.395 64.4224 96.3977 64.3661Z" fill="black"/>
<path d="M104.042 65.4628V65.626H102.791V65.4948L103.534 64.7716C103.732 64.5732 103.77 64.4516 103.77 64.33C103.77 64.1252 103.626 64.01 103.354 64.01C103.264 64.0048 103.173 64.0199 103.089 64.0543C103.005 64.0886 102.929 64.1412 102.868 64.2084L102.737 64.0964C102.818 64.0095 102.918 63.9417 103.028 63.898C103.139 63.8542 103.258 63.8357 103.377 63.8436C103.738 63.8436 103.966 64.026 103.966 64.3236C103.961 64.4321 103.932 64.5382 103.882 64.6345C103.832 64.7307 103.761 64.8147 103.674 64.8804L103.066 65.4756L104.042 65.4628Z" fill="black"/>
<path d="M104.26 64.7357C104.26 64.1661 104.557 63.8301 104.97 63.8301C105.383 63.8301 105.684 64.1661 105.684 64.7357C105.684 65.3053 105.383 65.6413 104.97 65.6413C104.557 65.6413 104.26 65.3021 104.26 64.7357ZM105.495 64.7357C105.495 64.2589 105.281 63.9965 104.97 63.9965C104.66 63.9965 104.445 64.2589 104.445 64.7357C104.445 65.2125 104.66 65.4717 104.97 65.4717C105.281 65.4717 105.495 65.2093 105.495 64.7357Z" fill="black"/>
<path d="M52.068 73.4146V73.5778H50.82V73.4498L51.5592 72.7234C51.7608 72.525 51.7992 72.4034 51.7992 72.285C51.7992 72.077 51.6552 71.965 51.3832 71.965C51.2924 71.9591 51.2015 71.9739 51.1172 72.0083C51.033 72.0426 50.9576 72.0957 50.8968 72.1634L50.7656 72.0546C50.8465 71.9669 50.9459 71.8984 51.0566 71.8541C51.1674 71.8098 51.2866 71.7908 51.4056 71.7986C51.7672 71.7986 51.9976 71.981 51.9976 72.2786C51.993 72.3874 51.9642 72.4939 51.9133 72.5902C51.8624 72.6865 51.7906 72.7703 51.7032 72.8354L51.0984 73.4306L52.068 73.4146Z" fill="black"/>
<path d="M52.7911 71.7988V73.578H52.6087V71.962H52.1895V71.7988H52.7911Z" fill="black"/>
<path d="M60.516 73.4144V73.5776H59.2648V73.4496L60.0073 72.7232C60.2057 72.5248 60.244 72.4032 60.244 72.2848C60.244 72.0768 60.1 71.9648 59.828 71.9648C59.7373 71.9596 59.6466 71.9747 59.5624 72.0091C59.4783 72.0434 59.4029 72.096 59.3417 72.1632L59.2104 72.0544C59.2916 71.9671 59.3911 71.8988 59.5017 71.8546C59.6124 71.8103 59.7315 71.7911 59.8504 71.7984C60.212 71.7984 60.4392 71.9808 60.4392 72.2784C60.4346 72.3869 60.4061 72.493 60.3558 72.5893C60.3054 72.6855 60.2345 72.7695 60.148 72.8352L59.54 73.4304L60.516 73.4144Z" fill="black"/>
<path d="M61.9591 73.4145V73.5777H60.7111V73.4497L61.4503 72.7233C61.6519 72.5249 61.6903 72.4033 61.6903 72.2849C61.6903 72.0769 61.5463 71.9649 61.2743 71.9649C61.1836 71.9592 61.0927 71.9742 61.0085 72.0085C60.9243 72.0429 60.8489 72.0958 60.7879 72.1633L60.6567 72.0545C60.7377 71.967 60.8372 71.8986 60.9479 71.8543C61.0586 71.81 61.1777 71.791 61.2967 71.7985C61.6551 71.7985 61.8855 71.9809 61.8855 72.2785C61.8809 72.387 61.8524 72.4931 61.802 72.5894C61.7517 72.6856 61.6808 72.7696 61.5943 72.8353L60.9863 73.4305L61.9591 73.4145Z" fill="black"/>
<path d="M69.2296 73.4146V73.5778H67.9816V73.4498L68.7208 72.7234C68.9224 72.525 68.9608 72.4034 68.9608 72.285C68.9608 72.077 68.8136 71.965 68.5416 71.965C68.4509 71.9598 68.3602 71.9749 68.276 72.0092C68.1919 72.0436 68.1165 72.0962 68.0552 72.1634L67.9272 72.0546C68.0081 71.9669 68.1075 71.8984 68.2183 71.8541C68.329 71.8098 68.4482 71.7908 68.5672 71.7986C68.9288 71.7986 69.156 71.981 69.156 72.2786C69.1523 72.3872 69.1242 72.4937 69.0738 72.5901C69.0234 72.6864 68.952 72.7703 68.8648 72.8354L68.26 73.4306L69.2296 73.4146Z" fill="black"/>
<path d="M70.6374 73.066C70.6374 73.3636 70.4198 73.594 69.9974 73.594C69.7625 73.6016 69.5336 73.5192 69.3574 73.3636L69.4438 73.2196C69.5939 73.3589 69.7928 73.4336 69.9974 73.4276C70.2918 73.4276 70.455 73.29 70.455 73.066C70.455 72.842 70.3046 72.714 69.975 72.714H69.847V72.5796L70.3398 71.962H69.431V71.7988H70.5798V71.9268L70.0774 72.5668C70.4454 72.5828 70.6374 72.7812 70.6374 73.066Z" fill="black"/>
<path d="M77.8439 73.4139V73.577H76.5959V73.4491L77.3351 72.7227C77.5367 72.5243 77.5751 72.4027 77.5751 72.2843C77.5751 72.0763 77.4311 71.9643 77.1559 71.9643C77.0655 71.9579 76.9749 71.9725 76.8911 72.0069C76.8073 72.0413 76.7325 72.0946 76.6727 72.1627L76.5415 72.0507C76.6224 71.963 76.7218 71.8945 76.8325 71.8502C76.9432 71.8059 77.0625 71.7869 77.1815 71.7947C77.5431 71.7947 77.7735 71.9771 77.7735 72.2747C77.7691 72.3836 77.7404 72.4901 77.6895 72.5865C77.6385 72.6828 77.5666 72.7665 77.4791 72.8315L76.8743 73.4267L77.8439 73.4139Z" fill="black"/>
<path d="M79.5397 73.1108H79.1813V73.578H78.9989V73.1108H77.9941V72.9796L78.9541 71.7988H79.1589L78.2213 72.9604H78.9957V72.5476H79.1717V72.9604H79.5397V73.1108Z" fill="black"/>
<path d="M86.6471 73.4148V73.5779H85.3959V73.45L86.1383 72.7235C86.3367 72.5251 86.3751 72.4036 86.3751 72.2852C86.3751 72.0772 86.2311 71.9652 85.9591 71.9652C85.8684 71.96 85.7777 71.9751 85.6935 72.0094C85.6094 72.0437 85.534 72.0964 85.4727 72.1635L85.3447 72.0548C85.4253 71.9667 85.5247 71.898 85.6355 71.8536C85.7463 71.8093 85.8657 71.7906 85.9847 71.7987C86.3463 71.7987 86.5735 71.9811 86.5735 72.2787C86.5689 72.3873 86.5404 72.4934 86.49 72.5896C86.4397 72.6859 86.3688 72.7698 86.2823 72.8356L85.6775 73.4308L86.6471 73.4148Z" fill="black"/>
<path d="M88.0837 73.0532C88.0837 73.3732 87.8725 73.594 87.4437 73.594C87.2086 73.603 86.9792 73.5204 86.8037 73.3636L86.8901 73.2196C87.0379 73.3585 87.2346 73.4333 87.4373 73.4276C87.7413 73.4276 87.9013 73.2772 87.9013 73.0628C87.9013 72.8484 87.7605 72.6916 87.3061 72.6916H86.9285L87.0181 71.7988H87.9941V71.962H87.1781L87.1173 72.5284H87.3477C87.8821 72.5284 88.0837 72.7396 88.0837 73.0532Z" fill="black"/>
<path d="M95.3063 73.4146V73.5778H94.0551V73.4498L94.7975 72.7234C94.9991 72.525 95.0375 72.4034 95.0375 72.285C95.0375 72.077 94.8903 71.965 94.6183 71.965C94.5276 71.9598 94.4368 71.9749 94.3527 72.0092C94.2686 72.0436 94.1931 72.0962 94.1319 72.1634L94.0039 72.0546C94.0848 71.9669 94.1842 71.8984 94.2949 71.8541C94.4056 71.8098 94.5249 71.7908 94.6439 71.7986C95.0055 71.7986 95.2327 71.981 95.2327 72.2786C95.2289 72.3872 95.2008 72.4937 95.1504 72.5901C95.1 72.6864 95.0286 72.7703 94.9415 72.8354L94.3367 73.4306L95.3063 73.4146Z" fill="black"/>
<path d="M96.865 73.0459C96.864 73.1227 96.8471 73.1985 96.8154 73.2685C96.7836 73.3385 96.7378 73.4011 96.6807 73.4525C96.6236 73.5039 96.5564 73.543 96.4835 73.5672C96.4106 73.5913 96.3334 73.6002 96.2569 73.5931C95.7833 73.5931 95.5273 73.2731 95.5273 72.7035C95.5273 72.1339 95.8473 71.7819 96.3401 71.7819C96.487 71.7761 96.6327 71.8092 96.7625 71.8779L96.6889 72.0251C96.5839 71.9653 96.4641 71.9365 96.3433 71.9419C95.9593 71.9419 95.7033 72.1883 95.7033 72.6715C95.7004 72.7205 95.7004 72.7697 95.7033 72.8187C95.752 72.7174 95.8298 72.6329 95.9266 72.5759C96.0235 72.5189 96.1352 72.4921 96.2473 72.4987C96.3252 72.487 96.4046 72.4924 96.4801 72.5148C96.5555 72.5371 96.6252 72.5757 96.6841 72.6279C96.743 72.6801 96.7897 72.7446 96.821 72.8168C96.8522 72.889 96.8672 72.9672 96.865 73.0459ZM96.6825 73.0459C96.6825 72.8123 96.5098 72.6619 96.2346 72.6619C96.1787 72.6553 96.1221 72.6602 96.0682 72.6763C96.0144 72.6925 95.9644 72.7196 95.9215 72.7559C95.8786 72.7923 95.8436 72.837 95.8187 72.8875C95.7938 72.9379 95.7796 72.9929 95.7769 73.0491C95.7769 73.2443 95.9401 73.4331 96.2473 73.4331C96.3014 73.4394 96.3563 73.4342 96.4083 73.418C96.4603 73.4019 96.5083 73.375 96.5493 73.3391C96.5903 73.3032 96.6233 73.2592 96.6463 73.2098C96.6692 73.1604 96.6816 73.1068 96.6825 73.0523V73.0459Z" fill="black"/>
<path d="M104.042 73.4144V73.5776H102.791V73.4496L103.534 72.7232C103.732 72.5248 103.77 72.4032 103.77 72.2848C103.77 72.0768 103.626 71.9648 103.354 71.9648C103.264 71.9596 103.173 71.9747 103.089 72.0091C103.005 72.0434 102.929 72.096 102.868 72.1632L102.737 72.0544C102.818 71.9671 102.917 71.8988 103.028 71.8546C103.139 71.8103 103.258 71.7911 103.377 71.7984C103.738 71.7984 103.966 71.9808 103.966 72.2784C103.961 72.3869 103.932 72.493 103.882 72.5893C103.832 72.6855 103.761 72.7695 103.674 72.8352L103.066 73.4304L104.042 73.4144Z" fill="black"/>
<path d="M105.518 71.798V71.926L104.772 73.5772H104.574L105.307 71.9612H104.391V72.2812H104.209V71.7852L105.518 71.798Z" fill="black"/>
<path d="M52.068 81.0342V81.1974H50.82V81.0662L51.5592 80.343C51.7608 80.1446 51.7992 80.023 51.7992 79.9014C51.7992 79.6966 51.6552 79.5814 51.3832 79.5814C51.2924 79.5756 51.2015 79.5904 51.1172 79.6247C51.033 79.6591 50.9576 79.7121 50.8968 79.7798L50.7656 79.6678C50.8465 79.5802 50.9459 79.5117 51.0566 79.4674C51.1674 79.4231 51.2866 79.4041 51.4056 79.4118C51.7672 79.4118 51.9976 79.5974 51.9976 79.895C51.993 80.0039 51.9642 80.1104 51.9133 80.2067C51.8624 80.303 51.7906 80.3868 51.7032 80.4518L51.0984 81.047L52.068 81.0342Z" fill="black"/>
<path d="M53.6678 80.7008C53.6678 81.0208 53.399 81.2096 52.9734 81.2096C52.5478 81.2096 52.2886 81.0144 52.2886 80.7008C52.2873 80.5997 52.3206 80.5012 52.3828 80.4215C52.4451 80.3418 52.5326 80.2857 52.631 80.2624C52.5487 80.2362 52.477 80.184 52.4268 80.1136C52.3766 80.0432 52.3506 79.9585 52.3526 79.872C52.3526 79.5808 52.599 79.3984 52.9734 79.3984C53.3478 79.3984 53.6134 79.5808 53.6134 79.872C53.6145 79.9591 53.5873 80.0443 53.536 80.1146C53.4846 80.185 53.4119 80.2369 53.3286 80.2624C53.4261 80.2869 53.5126 80.3434 53.5742 80.4229C53.6357 80.5024 53.6687 80.6003 53.6678 80.7008ZM53.479 80.7008C53.479 80.48 53.2902 80.3456 52.9734 80.3456C52.6566 80.3456 52.4742 80.48 52.4742 80.7008C52.4742 80.9216 52.6598 81.0592 52.9734 81.0592C53.287 81.0592 53.479 80.9184 53.479 80.6976V80.7008ZM52.9798 80.1952C53.2582 80.1952 53.4246 80.0704 53.4246 79.8752C53.4246 79.68 53.2486 79.5552 52.9798 79.5552C52.711 79.5552 52.5414 79.6768 52.5414 79.8752C52.5414 80.0736 52.6982 80.1952 52.9798 80.1952Z" fill="black"/>
<path d="M60.9801 81.0342V81.1974H59.7321V81.0662L60.4713 80.343C60.6729 80.1446 60.7113 80.023 60.7113 79.9014C60.7113 79.6966 60.5673 79.5814 60.2953 79.5814C60.2045 79.5756 60.1136 79.5904 60.0293 79.6247C59.9451 79.6591 59.8697 79.7121 59.8089 79.7798L59.6777 79.6678C59.7586 79.5802 59.858 79.5117 59.9687 79.4674C60.0795 79.4231 60.1987 79.4041 60.3177 79.4118C60.6793 79.4118 60.9097 79.5974 60.9097 79.895C60.9051 80.0039 60.8763 80.1104 60.8254 80.2067C60.7745 80.303 60.7027 80.3868 60.6153 80.4518L60.0201 81.0342H60.9801Z" fill="black"/>
<path d="M62.503 80.2917C62.503 80.8965 62.183 81.21 61.687 81.21C61.5401 81.2175 61.3939 81.1843 61.2646 81.114L61.3382 80.9669C61.4433 81.0267 61.5631 81.0555 61.6838 81.05C62.0678 81.05 62.3238 80.8036 62.3238 80.3204C62.3266 80.2725 62.3266 80.2244 62.3238 80.1765C62.2725 80.2745 62.1937 80.3555 62.0971 80.4094C62.0005 80.4634 61.8902 80.4881 61.7798 80.4804C61.7044 80.489 61.628 80.4815 61.5557 80.4586C61.4833 80.4357 61.4166 80.3978 61.3599 80.3474C61.3031 80.297 61.2576 80.2352 61.2263 80.1661C61.195 80.0969 61.1786 80.0219 61.1782 79.946C61.1792 79.8692 61.1961 79.7934 61.2278 79.7235C61.2595 79.6535 61.3054 79.5908 61.3625 79.5394C61.4196 79.488 61.4867 79.449 61.5597 79.4248C61.6326 79.4006 61.7097 79.3918 61.7862 79.3988C62.2598 79.3988 62.503 79.7285 62.503 80.2917ZM62.2598 79.9365C62.2598 79.7412 62.0966 79.5556 61.7894 79.5556C61.7348 79.5493 61.6794 79.5546 61.627 79.5712C61.5746 79.5878 61.5262 79.6152 61.4851 79.6518C61.444 79.6884 61.4111 79.7332 61.3886 79.7833C61.366 79.8335 61.3543 79.8879 61.3542 79.9429C61.3542 80.1765 61.527 80.3269 61.8022 80.3269C61.8582 80.333 61.9149 80.3277 61.9688 80.3111C62.0226 80.2946 62.0726 80.2672 62.1154 80.2306C62.1583 80.194 62.1932 80.149 62.2181 80.0985C62.2429 80.0479 62.2571 79.9927 62.2598 79.9365Z" fill="black"/>
<path d="M69.7673 80.6845C69.7673 80.9821 69.5529 81.2093 69.1273 81.2093C68.8928 81.2178 68.6639 81.1365 68.4873 80.9821L68.5769 80.8381C68.7269 80.9751 68.9242 81.0485 69.1273 81.0429C69.4249 81.0429 69.5881 80.9053 69.5881 80.6845C69.5881 80.4637 69.4377 80.3293 69.1049 80.3293H68.9801V80.1949L69.4729 79.5773H68.5609V79.4141H69.7065V79.5453L69.2041 80.1853C69.5785 80.1981 69.7673 80.3997 69.7673 80.6845Z" fill="black"/>
<path d="M70.0264 80.3197C70.0264 79.7533 70.324 79.4141 70.7368 79.4141C71.1496 79.4141 71.4472 79.7533 71.4472 80.3197C71.4472 80.8861 71.1496 81.2253 70.7368 81.2253C70.324 81.2253 70.0264 80.8733 70.0264 80.3197ZM71.2616 80.3197C71.2616 79.8461 71.0472 79.5837 70.7368 79.5837C70.4264 79.5837 70.212 79.8461 70.212 80.3197C70.212 80.7933 70.4264 81.0589 70.7368 81.0589C71.0472 81.0589 71.2616 80.7805 71.2616 80.3197Z" fill="black"/>
<path d="M79.0344 80.6845C79.0344 80.9821 78.8168 81.2093 78.3944 81.2093C78.1599 81.2178 77.931 81.1365 77.7544 80.9821L77.844 80.8381C77.995 80.9755 78.1935 81.049 78.3976 81.0429C78.692 81.0429 78.8552 80.9053 78.8552 80.6845C78.8552 80.4637 78.7048 80.3293 78.3752 80.3293H78.2472V80.1949L78.74 79.5773H77.8312V79.4141H78.9736V79.5453L78.4712 80.1853C78.8424 80.1981 79.0344 80.3997 79.0344 80.6845Z" fill="black"/>
<path d="M79.7864 79.4141V81.1965H79.6008V79.5773H79.1816V79.4141H79.7864Z" fill="black"/>
<path d="M95.6198 47.8181C95.6198 48.1221 95.4086 48.3557 94.9798 48.3557C94.7454 48.3642 94.5165 48.283 94.3398 48.1285L94.4294 47.9845C94.5785 48.1211 94.7746 48.1945 94.9766 48.1893C95.2806 48.1893 95.4406 48.0421 95.4406 47.8245C95.4406 47.6069 95.2966 47.4533 94.8454 47.4533H94.4646L94.5574 46.5605H95.5174V46.7205H94.7014L94.6406 47.2869H94.871C95.415 47.2901 95.6198 47.5013 95.6198 47.8181Z" fill="black"/>
<path d="M104.324 47.8077C104.324 47.8845 104.308 47.9605 104.277 48.0307C104.245 48.1009 104.2 48.1638 104.143 48.2153C104.086 48.2669 104.019 48.3059 103.946 48.33C103.873 48.354 103.796 48.3625 103.719 48.3549C103.246 48.3549 102.986 48.0349 102.986 47.4653C102.986 46.8957 103.306 46.5437 103.802 46.5437C103.95 46.5374 104.096 46.5717 104.225 46.6429L104.151 46.7901C104.046 46.7292 103.927 46.6992 103.806 46.7037C103.418 46.7037 103.166 46.9533 103.166 47.4365C103.163 47.4845 103.163 47.5325 103.166 47.5805C103.217 47.4825 103.296 47.4015 103.392 47.3475C103.489 47.2935 103.599 47.2689 103.71 47.2765C103.786 47.2655 103.863 47.271 103.937 47.2926C104.011 47.3143 104.08 47.3515 104.138 47.4019C104.196 47.4523 104.243 47.5146 104.275 47.5846C104.307 47.6546 104.324 47.7307 104.324 47.8077ZM104.145 47.8077C104.145 47.5741 103.972 47.4237 103.697 47.4237C103.641 47.4175 103.584 47.4229 103.53 47.4394C103.476 47.456 103.426 47.4834 103.384 47.52C103.341 47.5565 103.306 47.6015 103.281 47.6521C103.256 47.7027 103.242 47.7578 103.239 47.8141C103.239 48.0093 103.402 48.1949 103.71 48.1949C103.764 48.2012 103.818 48.196 103.87 48.1798C103.922 48.1637 103.97 48.1368 104.011 48.1009C104.052 48.065 104.085 48.021 104.108 47.9716C104.131 47.9222 104.144 47.8686 104.145 47.8141V47.8077Z" fill="black"/>
<path d="M68.7942 37.9883L68.2118 39.7707H67.7702L67.3798 38.5643L66.9766 39.7707H66.535L65.9526 37.9883H66.3782L66.7814 39.2395L67.2006 37.9883H67.5814L67.9878 39.2491L68.4038 37.9883H68.7942Z" fill="#263238"/>
<path d="M70.2281 39.1975H69.1945C69.2156 39.2825 69.2667 39.3572 69.3384 39.4077C69.4101 39.4582 69.4976 39.4812 69.5849 39.4725C69.6486 39.4748 69.7121 39.4642 69.7716 39.4411C69.831 39.418 69.8851 39.3829 69.9305 39.3382L70.1417 39.5684C70.0688 39.6439 69.9805 39.7027 69.8827 39.7408C69.7849 39.7789 69.68 39.7954 69.5753 39.7891C69.4768 39.7989 69.3773 39.788 69.2833 39.7571C69.1892 39.7263 69.1027 39.6761 69.0292 39.6099C68.9556 39.5437 68.8968 39.4628 68.8564 39.3725C68.816 39.2822 68.7949 39.1845 68.7945 39.0855C68.7935 38.9907 68.8119 38.8967 68.8486 38.8092C68.8852 38.7217 68.9393 38.6426 69.0076 38.5767C69.0759 38.5109 69.157 38.4596 69.2458 38.4261C69.3346 38.3927 69.4293 38.3776 69.5241 38.382C69.6187 38.3765 69.7134 38.391 69.802 38.4244C69.8907 38.4579 69.9713 38.5097 70.0386 38.5763C70.1059 38.643 70.1584 38.7231 70.1927 38.8114C70.227 38.8996 70.2423 38.9941 70.2377 39.0887C70.2377 39.1207 70.2313 39.1623 70.2281 39.1975ZM69.1881 38.964H69.8633C69.8498 38.8843 69.8085 38.8119 69.7467 38.7597C69.6849 38.7076 69.6066 38.6789 69.5257 38.6789C69.4448 38.6789 69.3665 38.7076 69.3047 38.7597C69.2429 38.8119 69.2016 38.8843 69.1881 38.964Z" fill="#263238"/>
<path d="M71.8981 37.8828V39.7708H71.5173V39.6108C71.465 39.6715 71.3994 39.7193 71.3256 39.7504C71.2517 39.7815 71.1717 39.7951 71.0917 39.79C70.905 39.79 70.7259 39.7158 70.5939 39.5838C70.4619 39.4518 70.3877 39.2727 70.3877 39.086C70.3877 38.8993 70.4619 38.7202 70.5939 38.5882C70.7259 38.4562 70.905 38.382 71.0917 38.382C71.1677 38.3779 71.2437 38.3903 71.3145 38.4185C71.3852 38.4467 71.449 38.4899 71.5013 38.5452V37.8828H71.8981ZM71.5077 39.086C71.5027 39.0176 71.4778 38.9521 71.4361 38.8976C71.3944 38.8431 71.3376 38.802 71.2728 38.7794C71.2081 38.7567 71.1381 38.7535 71.0715 38.7701C71.0049 38.7867 70.9446 38.8224 70.8981 38.8728C70.8515 38.9232 70.8207 38.9861 70.8094 39.0538C70.7981 39.1215 70.8069 39.191 70.8346 39.2538C70.8623 39.3166 70.9078 39.3699 70.9654 39.4071C71.023 39.4444 71.0903 39.4641 71.1589 39.4636C71.2072 39.4638 71.2551 39.4539 71.2994 39.4346C71.3437 39.4153 71.3835 39.387 71.4163 39.3515C71.4491 39.316 71.4742 39.2741 71.4899 39.2284C71.5056 39.1827 71.5117 39.1342 71.5077 39.086Z" fill="#263238"/>
<path d="M75.78 38.3243H75.2104V37.9883H76.7625V38.3243H76.1928V39.7707H75.78V38.3243Z" fill="#263238"/>
<path d="M78.3561 38.9861V39.7701H77.9593V39.0405C77.9593 38.8197 77.8569 38.7205 77.6841 38.7205C77.5113 38.7205 77.3641 38.8357 77.3641 39.0885V39.7669H76.9673V37.8789H77.3641V38.5381C77.4224 38.484 77.4909 38.442 77.5656 38.4145C77.6404 38.387 77.7198 38.3747 77.7993 38.3781C77.878 38.374 77.9566 38.3874 78.0295 38.4173C78.1024 38.4472 78.1678 38.4928 78.221 38.5509C78.2742 38.609 78.3139 38.6781 78.3373 38.7534C78.3606 38.8286 78.367 38.9081 78.3561 38.9861Z" fill="#263238"/>
<path d="M80.0968 38.4004V39.7691H79.7192V39.606C79.6655 39.6651 79.5997 39.712 79.5262 39.7434C79.4528 39.7749 79.3734 39.7902 79.2936 39.7883C79.2124 39.7952 79.1307 39.7839 79.0545 39.755C78.9783 39.7262 78.9096 39.6806 78.8533 39.6217C78.7971 39.5628 78.7549 39.492 78.7297 39.4145C78.7046 39.3371 78.6971 39.255 78.708 39.1743V38.4004H79.1048V39.1135C79.1048 39.3438 79.2072 39.4333 79.3832 39.4333C79.5592 39.4333 79.7032 39.315 79.7032 39.0624V38.4004H80.0968Z" fill="#263238"/>
<path d="M85.3928 38.3175V38.7911H86.2184V39.1112H85.3928V39.7512H84.98V37.9688H86.3272V38.2888L85.3928 38.3175Z" fill="#263238"/>
<path d="M87.4022 38.3806V38.7451H87.3158C87.2651 38.7408 87.2141 38.7479 87.1666 38.766C87.119 38.7841 87.0762 38.8126 87.0411 38.8494C87.0061 38.8863 86.9798 38.9305 86.9642 38.9789C86.9486 39.0273 86.9441 39.0785 86.951 39.1289V39.7684H86.5542V38.3997H86.9318V38.5788C86.9887 38.5107 87.0611 38.4571 87.1429 38.4226C87.2248 38.3882 87.3136 38.3737 87.4022 38.3806Z" fill="#263238"/>
<path d="M87.5942 37.9876C87.595 37.9566 87.6021 37.9261 87.6151 37.8979C87.6281 37.8698 87.6467 37.8446 87.6697 37.8239C87.6928 37.8033 87.7199 37.7875 87.7493 37.7777C87.7787 37.7679 87.8098 37.7641 87.8406 37.7668C87.8711 37.7637 87.9018 37.7669 87.931 37.7761C87.9602 37.7854 87.9871 37.8006 88.0102 37.8206C88.0333 37.8407 88.052 37.8653 88.0653 37.893C88.0785 37.9206 88.0859 37.9506 88.087 37.9812C88.087 38.0465 88.0611 38.1092 88.0149 38.1554C87.9687 38.2016 87.906 38.2276 87.8406 38.2276C87.7753 38.2276 87.7126 38.2016 87.6664 38.1554C87.6202 38.1092 87.5942 38.0465 87.5942 37.9812V37.9876ZM87.6422 38.4004H88.039V39.77H87.6422V38.4004Z" fill="#263238"/>
<path d="M93.1719 39.5944L93.3127 39.2744C93.4851 39.3931 93.689 39.4577 93.8983 39.46C94.1447 39.46 94.2439 39.3768 94.2439 39.268C94.2439 38.948 93.2071 39.1656 93.2071 38.5032C93.2071 38.1992 93.4503 37.9496 93.9591 37.9496C94.1754 37.9443 94.3891 37.9985 94.5767 38.1064L94.4487 38.4264C94.2996 38.3371 94.1296 38.2885 93.9559 38.2856C93.7095 38.2856 93.6167 38.3784 93.6167 38.4904C93.6167 38.8104 94.6535 38.5896 94.6535 39.2456C94.6535 39.5432 94.4039 39.796 93.8951 39.796C93.6393 39.8026 93.3874 39.7324 93.1719 39.5944Z" fill="#263238"/>
<path d="M96.119 38.9887V39.769H95.7478V39.5963C95.7019 39.6625 95.6392 39.7152 95.566 39.7489C95.4929 39.7827 95.412 39.7962 95.3318 39.7882C95.0118 39.7882 94.8198 39.6091 94.8198 39.3725C94.8198 39.1358 94.9894 38.9631 95.4054 38.9631H95.7254C95.7254 38.7936 95.623 38.6945 95.4054 38.6945C95.2637 38.6924 95.1252 38.7374 95.0118 38.8224L94.871 38.5442C95.047 38.4332 95.2518 38.3765 95.4598 38.3811C95.8758 38.3811 96.119 38.573 96.119 38.9887ZM95.7222 39.3341V39.1966H95.4502C95.2646 39.1966 95.207 39.2637 95.207 39.3565C95.207 39.4492 95.2902 39.5228 95.4278 39.5228C95.4906 39.5269 95.5531 39.5108 95.6061 39.4769C95.6591 39.4429 95.6998 39.3929 95.7222 39.3341Z" fill="#263238"/>
<path d="M97.3608 39.7021C97.2651 39.7622 97.1537 39.7923 97.0408 39.7885C96.9734 39.7981 96.9047 39.7922 96.84 39.7713C96.7752 39.7504 96.716 39.715 96.667 39.6678C96.6179 39.6206 96.5803 39.5629 96.5569 39.4989C96.5335 39.435 96.525 39.3666 96.532 39.2989V38.7357H96.3208V38.4157H96.532V38.0957H96.9256V38.4157H97.268V38.7357H96.9256V39.2925C96.9226 39.3162 96.925 39.3402 96.9326 39.3629C96.9401 39.3855 96.9526 39.4062 96.9692 39.4234C96.9858 39.4406 97.006 39.4538 97.0283 39.4622C97.0507 39.4705 97.0746 39.4738 97.0984 39.4717C97.1554 39.4725 97.2112 39.4557 97.2584 39.4237L97.3608 39.7021Z" fill="#263238"/>
<path d="M101.511 39.5944L101.652 39.2744C101.825 39.3935 102.03 39.4581 102.241 39.46C102.484 39.46 102.583 39.3768 102.583 39.268C102.583 38.948 101.546 39.1656 101.546 38.5032C101.546 38.1992 101.793 37.9496 102.298 37.9496C102.515 37.9443 102.728 37.9985 102.916 38.1064L102.788 38.4264C102.639 38.3367 102.469 38.2881 102.295 38.2856C102.052 38.2856 101.956 38.3752 101.956 38.4872C101.956 38.8072 102.993 38.5896 102.993 39.2456C102.993 39.5432 102.746 39.796 102.238 39.796C101.981 39.8032 101.728 39.733 101.511 39.5944Z" fill="#263238"/>
<path d="M104.628 38.4004V39.7691H104.25V39.606C104.197 39.6651 104.131 39.712 104.057 39.7434C103.984 39.7749 103.905 39.7902 103.825 39.7883C103.744 39.7952 103.662 39.7839 103.586 39.755C103.51 39.7262 103.441 39.6806 103.385 39.6217C103.328 39.5628 103.286 39.492 103.261 39.4145C103.236 39.3371 103.228 39.255 103.239 39.1743V38.4004H103.636V39.1135C103.636 39.3438 103.738 39.4333 103.914 39.4333C104.09 39.4333 104.234 39.315 104.234 39.0624V38.4004H104.628Z" fill="#263238"/>
<path d="M106.397 38.9852V39.7687H106.001V39.0396C106.001 38.8189 105.898 38.7198 105.722 38.7198C105.546 38.7198 105.402 38.8349 105.402 39.0876V39.7655H105.005V38.4H105.386V38.5599C105.444 38.4992 105.514 38.4514 105.592 38.42C105.67 38.3886 105.754 38.3741 105.837 38.3776C105.916 38.3737 105.995 38.3871 106.068 38.4169C106.141 38.4467 106.206 38.4922 106.26 38.5502C106.313 38.6082 106.353 38.6772 106.377 38.7524C106.401 38.8276 106.408 38.9071 106.397 38.9852Z" fill="#263238"/>
<path d="M50.2698 131.549H24.625V135.072H50.2698V131.549Z" fill="#263238"/>
<path d="M24.5801 131.52H50.3145V135.132H24.5801V131.52ZM50.2249 131.606H24.6665V135.04H50.2249V131.606Z" fill="#263238"/>
<path d="M47.892 133.9L44.1992 152.108H30.5416L26.9736 135.072L47.892 133.9Z" fill="#263238"/>
<path d="M47.892 150.387L45.9208 153.094H29.3224L26.9736 150.387H47.892Z" fill="#455A64"/>
<path d="M38.4105 134.431C38.4585 134.431 38.5257 125.992 38.5545 115.589C38.5833 105.186 38.5545 96.7441 38.5161 96.7441C38.4777 96.7441 38.4009 105.179 38.3721 115.589C38.3433 125.999 38.3593 134.431 38.4105 134.431Z" fill="#263238"/>
<path d="M32.6987 113.318C32.7118 113.386 32.7344 113.452 32.7659 113.514C32.8267 113.658 32.9003 113.834 32.9963 114.061L33.1627 114.454C33.2139 114.602 33.2715 114.774 33.3323 114.931C33.3931 115.088 33.4603 115.29 33.5307 115.482C33.6011 115.674 33.6523 115.888 33.7195 116.122C34.0252 117.152 34.2646 118.2 34.4363 119.261C34.6367 120.562 34.7702 121.872 34.8363 123.187C34.9291 125.581 34.8607 127.977 34.6315 130.362C34.5483 131.277 34.4651 132.016 34.4043 132.528C34.3787 132.765 34.3563 132.96 34.3403 133.117C34.3318 133.185 34.3318 133.254 34.3403 133.322C34.3648 133.257 34.381 133.189 34.3883 133.12C34.4139 132.966 34.4459 132.774 34.4843 132.538C34.5675 132.029 34.6699 131.29 34.7691 130.374C35.0396 127.986 35.1263 125.58 35.0283 123.178C34.9619 121.856 34.823 120.539 34.6123 119.232C34.4317 118.166 34.1783 117.114 33.8539 116.083C33.7803 115.862 33.7227 115.651 33.6491 115.443L33.4379 114.896L33.2523 114.419C33.1883 114.278 33.1243 114.147 33.0699 114.032L32.8075 113.498C32.7774 113.434 32.7409 113.374 32.6987 113.318Z" fill="#263238"/>
<path d="M33.3516 106.496C33.3735 106.591 33.4013 106.684 33.4348 106.775L33.7004 107.558C33.7612 107.728 33.8252 107.917 33.8988 108.122L34.1004 108.8C34.2508 109.29 34.4204 109.843 34.5804 110.467C34.6604 110.787 34.7468 111.107 34.8364 111.427L35.0764 112.493C35.2556 113.229 35.3964 114.026 35.55 114.861C35.8316 116.534 36.0812 118.381 36.254 120.343C36.4268 122.304 36.4876 124.166 36.51 125.866C36.5324 127.565 36.494 129.098 36.4236 130.381C36.4012 131.021 36.3596 131.603 36.3276 132.115C36.2956 132.627 36.2668 133.075 36.2348 133.421C36.2028 133.767 36.1868 134.042 36.1708 134.246C36.1623 134.343 36.1623 134.441 36.1708 134.538C36.1944 134.444 36.2105 134.349 36.2188 134.253C36.2422 134.04 36.2742 133.764 36.3148 133.427C36.3564 133.072 36.4012 132.631 36.4396 132.122C36.478 131.613 36.5324 131.03 36.5644 130.387C36.6508 129.107 36.686 127.568 36.6892 125.866C36.6924 124.163 36.6092 122.288 36.446 120.326C36.2828 118.365 36.0172 116.509 35.726 114.829C35.5564 113.994 35.406 113.197 35.2332 112.461L34.9836 111.392C34.8876 111.056 34.798 110.73 34.7148 110.432C34.5516 109.808 34.366 109.254 34.2092 108.768C34.1292 108.525 34.0556 108.298 33.9852 108.09L33.7804 107.52C33.6556 107.2 33.5564 106.941 33.4828 106.746C33.4478 106.658 33.4038 106.575 33.3516 106.496Z" fill="#263238"/>
<path d="M40.0329 135.923C40.0364 135.891 40.0364 135.857 40.0329 135.824C40.0329 135.751 40.0329 135.655 40.0585 135.536C40.0585 135.267 40.1001 134.896 40.1321 134.416C40.1961 133.434 40.2825 132.032 40.3913 130.307C40.6121 126.839 40.9353 122.045 41.5177 116.775C41.8153 114.141 42.1577 111.639 42.5225 109.37C42.7145 108.237 42.8873 107.159 43.0825 106.17C43.2777 105.181 43.4569 104.234 43.6361 103.383C43.8153 102.531 43.9945 101.783 44.1449 101.095C44.2953 100.407 44.4361 99.8435 44.5577 99.3731L44.8233 98.2851C44.8489 98.1699 44.8713 98.0771 44.8873 98.0003C44.8982 97.9695 44.9036 97.937 44.9033 97.9043C44.8882 97.9336 44.8775 97.9648 44.8713 97.9971L44.7881 98.2755C44.7145 98.5347 44.6153 98.8963 44.4873 99.3539C44.3593 99.8115 44.2025 100.397 44.0457 101.072C43.8889 101.747 43.6873 102.506 43.5113 103.357C43.3353 104.208 43.1209 105.136 42.9353 106.144C42.7497 107.152 42.5513 108.224 42.3561 109.344C41.9881 111.616 41.6361 114.119 41.3353 116.759C40.7529 122.035 40.4521 126.832 40.2601 130.304C40.1673 132.039 40.1001 133.447 40.0617 134.416C40.0617 134.893 40.0297 135.267 40.0201 135.536C40.0201 135.655 40.0201 135.751 40.0201 135.827C40.0195 135.86 40.0238 135.892 40.0329 135.923Z" fill="#263238"/>
<path d="M38.6185 100.8C38.7305 99.6029 39.9369 98.7005 41.1369 98.6877C42.3369 98.6749 43.4569 99.3949 44.1929 100.345C44.8841 101.331 45.3824 102.438 45.6617 103.609C46.4713 106.425 46.9129 109.369 46.5673 112.294C46.2217 115.219 45.0409 118.054 42.9545 120.121C42.6121 120.441 42.1737 120.79 41.7097 120.691C41.4582 120.615 41.2309 120.475 41.0505 120.284C39.007 118.413 37.3868 116.127 36.2985 113.579C35.2102 111.031 34.6789 108.28 34.7401 105.51C34.7753 104.406 34.9193 103.254 35.5305 102.332C36.1417 101.411 37.5721 100.432 38.6153 100.803" fill="#FF81AE"/>
<path d="M47.582 91.2279L49.2716 94.2903C49.3132 94.3607 49.3644 94.4407 49.4444 94.4471C49.5244 94.4535 49.6012 94.3703 49.6492 94.2967L54.1292 87.4359L53.0988 86.8535L47.582 91.2279Z" fill="#FF81AE"/>
<g opacity="0.2">
<path d="M47.582 91.2279L49.2716 94.2903C49.3132 94.3607 49.3644 94.4407 49.4444 94.4471C49.5244 94.4535 49.6012 94.3703 49.6492 94.2967L54.1292 87.4359L53.0988 86.8535L47.582 91.2279Z" fill="black"/>
</g>
<path d="M38.5161 96.745L53.7609 87.7466C53.8457 87.7103 53.9222 87.6574 53.986 87.5908C54.0498 87.5243 54.0995 87.4456 54.1321 87.3594C54.1961 87.1354 54.0265 86.9178 53.8633 86.7514C52.8147 85.6634 51.5438 84.8143 50.1373 84.2621C48.7308 83.7098 47.2217 83.4674 45.7129 83.5514C44.2065 83.661 42.7493 84.1355 41.4671 84.9338C40.1849 85.7321 39.1161 86.8303 38.3529 88.1338C36.8841 90.761 36.8329 94.2394 38.5225 96.7354" fill="#FF81AE"/>
<path d="M51.5659 84.8766C51.5001 84.8595 51.4323 84.8509 51.3643 84.851C51.2331 84.851 51.0443 84.8222 50.7883 84.8254C50.0796 84.8151 49.3715 84.8708 48.6731 84.9918C46.3481 85.3855 44.184 86.4353 42.4356 88.0176C40.6872 89.5999 39.4273 91.6488 38.8043 93.923C38.6152 94.6056 38.4888 95.3039 38.4267 96.0094C38.4011 96.259 38.4267 96.3294 38.4043 96.4542C38.4185 96.5686 38.459 96.6782 38.5227 96.7742C38.4746 96.5211 38.4659 96.262 38.4971 96.0062C38.5866 95.309 38.7311 94.6199 38.9291 93.9454C39.6941 91.3753 41.254 89.1137 43.3848 87.4854C45.5155 85.8572 48.1074 84.9461 50.7883 84.883C51.2875 84.883 51.5659 84.8926 51.5659 84.8766Z" fill="#263238"/>
<path d="M40.5801 90.5332C40.8218 90.6816 41.0808 90.7998 41.3513 90.8852C41.8345 91.0772 42.5161 91.3204 43.2713 91.5636C44.0265 91.8068 44.7273 91.9956 45.2329 92.1204C45.5032 92.2047 45.7824 92.2573 46.0649 92.2772C45.8099 92.1557 45.5428 92.0613 45.2681 91.9956L43.3257 91.3876L41.4057 90.7636C41.1386 90.6601 40.8621 90.5829 40.5801 90.5332Z" fill="#263238"/>
<path d="M42.98 84.0859C42.7701 85.2101 42.7409 86.3606 42.8936 87.4939C42.9684 86.9297 42.9983 86.3605 42.9832 85.7915C43.0274 85.2238 43.0264 84.6535 42.98 84.0859Z" fill="#263238"/>
<path d="M53.8956 87.5771C53.5379 87.4167 53.1676 87.2861 52.7884 87.1867C52.094 86.9755 51.1308 86.7035 50.0556 86.4443C48.9804 86.1851 47.998 85.9867 47.2844 85.8619C46.9016 85.7753 46.5118 85.7229 46.1196 85.7051C46.4925 85.8257 46.8731 85.9209 47.2588 85.9899C47.966 86.1467 48.9388 86.3643 50.014 86.6299C51.0892 86.8955 52.0524 87.1387 52.7532 87.3179C53.1271 87.4322 53.509 87.5189 53.8956 87.5771Z" fill="#263238"/>
<path d="M44.948 98.2077C46.2568 97.2125 47.6456 97.0173 49.2904 97.0813C50.937 97.1917 52.5486 97.6084 54.0424 98.3101C56.6024 99.4365 59.028 101.094 60.564 103.43C62.1 105.766 62.6376 108.889 61.4856 111.449C61.3973 111.72 61.2114 111.948 60.964 112.089C60.6783 112.171 60.3728 112.147 60.1032 112.022C57.1816 111.062 54.2344 110.102 51.5464 108.611C48.8584 107.12 46.4104 105.049 44.98 102.333C44.61 101.691 44.3748 100.981 44.2888 100.246C44.2485 99.878 44.2877 99.5056 44.4036 99.154C44.5195 98.8023 44.7095 98.4797 44.9608 98.2077" fill="#FF81AE"/>
<path d="M44.9224 97.9004C44.9881 97.9364 45.0579 97.9643 45.1304 97.9836L45.7448 98.1948L46.1864 98.342C46.3496 98.4028 46.5064 98.4732 46.7048 98.5468C47.076 98.694 47.5048 98.8444 47.9592 99.0652L48.676 99.3852C48.9224 99.5004 49.172 99.6412 49.4344 99.7756C49.9656 100.035 50.5 100.368 51.0728 100.704C52.2899 101.468 53.4474 102.324 54.5352 103.264C55.6082 104.223 56.6073 105.261 57.524 106.371C57.9304 106.892 58.3272 107.382 58.6536 107.875C58.82 108.118 58.9928 108.348 59.1368 108.579C59.2808 108.809 59.4184 109.036 59.5528 109.248C59.828 109.67 60.0296 110.076 60.2248 110.425C60.3208 110.601 60.4136 110.761 60.4936 110.912L60.6952 111.334L60.9832 111.913C61.0119 111.984 61.0495 112.05 61.0952 112.112C61.0755 112.039 61.0487 111.968 61.0152 111.9C60.9512 111.747 60.8648 111.548 60.7592 111.305L60.5704 110.873C60.4968 110.72 60.4072 110.553 60.3176 110.377C60.1288 110.022 59.9336 109.609 59.6776 109.184L59.268 108.502C59.124 108.268 58.948 108.038 58.7912 107.788C58.4712 107.289 58.0712 106.793 57.6648 106.265C56.7523 105.139 55.7495 104.089 54.6664 103.126C53.5718 102.176 52.4033 101.315 51.172 100.55C50.596 100.23 50.052 99.8876 49.5176 99.6316C49.252 99.4972 48.9992 99.3596 48.7464 99.2476L48.0232 98.9276C47.5656 98.7132 47.1304 98.5724 46.7432 98.4316C46.5544 98.3612 46.3784 98.294 46.2152 98.2428L45.7672 98.1084L45.1272 97.9292C45.0601 97.9122 44.9915 97.9026 44.9224 97.9004Z" fill="#263238"/>
<path d="M55.166 103.445C56.2133 103.845 57.2815 104.188 58.366 104.473C59.43 104.817 60.5122 105.102 61.6076 105.327C60.5603 104.927 59.4921 104.584 58.4076 104.3C57.3435 103.956 56.2613 103.671 55.166 103.445Z" fill="#263238"/>
<path d="M55.2969 110.485C55.3538 110.157 55.3774 109.823 55.3673 109.49C55.3673 108.876 55.3865 108.028 55.3673 107.09C55.3481 106.152 55.2905 105.304 55.2393 104.69C55.2279 104.357 55.1861 104.026 55.1145 103.701C55.0849 104.033 55.0849 104.367 55.1145 104.7C55.1337 105.372 55.1593 106.191 55.1881 107.093C55.2169 107.996 55.2297 108.818 55.2489 109.49C55.2363 109.822 55.2524 110.155 55.2969 110.485Z" fill="#263238"/>
<path d="M49.2684 107.413C49.3164 107.413 49.4796 105.691 49.6268 103.557C49.774 101.423 49.8508 99.6946 49.8028 99.6914C49.7548 99.6882 49.5916 101.413 49.4444 103.531C49.2972 105.65 49.2172 107.41 49.2684 107.413Z" fill="#263238"/>
<path d="M56.772 99.5189C56.4334 99.4776 56.0916 99.468 55.7512 99.49C55.1112 99.49 54.2504 99.5125 53.2904 99.5445C52.3304 99.5766 51.4568 99.6151 50.8296 99.6536C50.4882 99.6538 50.1475 99.686 49.812 99.7498C50.1506 99.7913 50.4923 99.802 50.8328 99.7818C51.4728 99.7818 52.3336 99.7594 53.2936 99.7273C54.2536 99.6952 55.1272 99.6568 55.7544 99.6183C56.0959 99.6162 56.4365 99.5829 56.772 99.5189Z" fill="#263238"/>
<path d="M42.2987 120.525C42.3135 120.459 42.321 120.391 42.3211 120.323C42.3211 120.17 42.3371 119.974 42.3467 119.734C42.3723 119.226 42.3755 118.486 42.3467 117.574C42.3179 116.662 42.2699 115.578 42.1579 114.374C42.0459 113.171 41.8667 111.859 41.6235 110.486C41.3803 109.114 41.0667 107.821 40.7531 106.646C40.4395 105.472 40.1131 104.442 39.7931 103.581C39.4731 102.72 39.2267 102.026 39.0251 101.558L38.7915 101.014C38.7688 100.95 38.7376 100.888 38.6987 100.832C38.7107 100.9 38.73 100.967 38.7563 101.03C38.8107 101.174 38.8747 101.35 38.9579 101.581C39.1371 102.058 39.3835 102.755 39.6715 103.619C39.9595 104.483 40.2699 105.523 40.5835 106.688C40.8971 107.853 41.1819 109.142 41.4315 110.509C41.6811 111.875 41.8539 113.184 41.9819 114.381C42.1099 115.578 42.1739 116.659 42.2091 117.581C42.2443 118.502 42.2603 119.226 42.2571 119.734C42.2571 119.974 42.2571 120.166 42.2571 120.32C42.2632 120.39 42.2772 120.458 42.2987 120.525Z" fill="#263238"/>
<path d="M41.4956 110.543C41.6754 110.785 41.8791 111.008 42.1036 111.209C42.4972 111.602 43.0636 112.13 43.7036 112.69C44.3436 113.25 44.9388 113.737 45.3804 114.079C45.6084 114.277 45.8574 114.45 46.1228 114.594C45.9242 114.367 45.7034 114.16 45.4636 113.977L43.8252 112.553L42.1996 111.116C41.983 110.904 41.7474 110.712 41.4956 110.543Z" fill="#263238"/>
<path d="M36.6602 114.432C36.8951 114.148 37.109 113.847 37.3002 113.532L38.8074 111.334L40.3466 109.158C40.5754 108.867 40.7808 108.559 40.961 108.236C40.6976 108.496 40.4568 108.778 40.241 109.078C39.8186 109.616 39.2522 110.374 38.657 111.228C38.0618 112.083 37.5498 112.88 37.1914 113.468C36.9851 113.772 36.8073 114.095 36.6602 114.432Z" fill="#263238"/>
<path d="M39.1976 102.204C39.1688 102.246 40.772 103.324 42.7784 104.614C44.7848 105.904 46.4296 106.915 46.4552 106.87C46.4808 106.825 44.8808 105.75 42.8744 104.46C40.868 103.171 39.22 102.163 39.1976 102.204Z" fill="#263238"/>
<path d="M34.6763 107.084C35.5244 106.381 36.3341 105.633 37.1019 104.844C37.9109 104.096 38.6779 103.305 39.3995 102.473C38.5504 103.174 37.7406 103.922 36.9739 104.713C36.1639 105.459 35.3968 106.251 34.6763 107.084Z" fill="#263238"/>
<path d="M33.5402 106.984L32.1802 106.879C31.2031 106.799 30.2546 106.51 29.3994 106.031C28.9869 105.79 28.5594 105.576 28.1194 105.391C26.417 104.709 24.5194 104.831 22.6794 104.751C19.6809 104.599 16.7431 103.848 14.0394 102.543C13.8815 102.47 13.7497 102.35 13.6618 102.2C13.3802 101.685 13.905 101.24 14.3562 100.949C16.673 99.5188 19.0346 98.0692 21.665 97.3652C24.2954 96.6612 27.2778 96.7764 29.521 98.3252C32.1546 100.136 33.1146 103.861 33.5594 107.026" fill="#FF81AE"/>
<path d="M13.6201 101.997C13.7014 101.968 13.7797 101.932 13.8537 101.888L14.4937 101.549C15.0601 101.251 15.8729 100.81 16.9033 100.317C18.1023 99.7288 19.3509 99.248 20.6345 98.88C22.2012 98.431 23.8416 98.2983 25.4601 98.4896C27.0839 98.6692 28.6177 99.3275 29.8665 100.381C30.8493 101.286 31.6366 102.383 32.1801 103.603C32.6633 104.634 32.9609 105.523 33.1785 106.112C33.2809 106.4 33.3609 106.63 33.4217 106.806C33.4482 106.888 33.4803 106.969 33.5177 107.046C33.5075 106.961 33.4871 106.877 33.4569 106.797C33.4025 106.618 33.3321 106.384 33.2457 106.09C32.9758 105.225 32.6553 104.376 32.2857 103.549C31.7564 102.304 30.974 101.182 29.9881 100.256C28.7177 99.172 27.1518 98.4932 25.4921 98.3072C23.847 98.1138 22.1799 98.2531 20.5897 98.7168C19.2997 99.0954 18.0474 99.5925 16.8489 100.202C15.8249 100.71 15.0185 101.162 14.4617 101.482L13.8217 101.853C13.7505 101.895 13.683 101.943 13.6201 101.997Z" fill="#263238"/>
<path d="M16.9164 103.771C16.9452 103.813 18.7436 102.648 20.9356 101.173C23.1276 99.6978 24.8812 98.4626 24.8556 98.421C24.83 98.3794 23.0252 99.541 20.8332 101.019C18.6412 102.498 16.8876 103.73 16.9164 103.771Z" fill="#263238"/>
<path d="M18.8364 98.3267C19.2583 98.4712 19.6995 98.5512 20.1452 98.564C20.5895 98.6258 21.0405 98.6193 21.4828 98.5447C21.0462 98.4671 20.6045 98.4221 20.1612 98.41C19.7223 98.3499 19.2795 98.322 18.8364 98.3267Z" fill="#263238"/>
<path d="M26.7144 97.2988C26.8628 97.6348 27.0625 97.9457 27.3064 98.2204C27.5136 98.5378 27.7646 98.8244 28.052 99.0716C27.9055 98.7353 27.7067 98.4243 27.4632 98.15C27.2553 97.8322 27.0031 97.5455 26.7144 97.2988Z" fill="#263238"/>
<path d="M25.1016 104.832C25.4063 104.707 25.6969 104.55 25.9688 104.364C26.4872 104.044 27.1912 103.587 27.9432 103.04C28.6952 102.492 29.3544 101.98 29.8312 101.603C30.0986 101.413 30.3482 101.198 30.5768 100.963C30.2856 101.115 30.0102 101.295 29.7544 101.5L27.8344 102.892C27.0856 103.436 26.3976 103.913 25.9144 104.256C25.6286 104.426 25.3568 104.618 25.1016 104.832Z" fill="#263238"/>
<path d="M31.5144 112.831C32.8264 112.485 34.3944 113.762 34.66 115.093C34.9256 116.424 34.4328 117.784 33.8472 119.01C32.5672 121.72 30.772 124.239 28.4072 126.111C26.0424 127.983 23.1144 129.183 20.1064 129.167C20.6632 126.587 19.9624 123.896 20.2696 121.279C20.5423 118.971 21.5897 116.825 23.2405 115.191C24.8914 113.556 27.048 112.53 29.3576 112.28C30.196 112.187 31.1656 112.056 31.5016 112.831" fill="#FF81AE"/>
<path d="M20.1194 129.167C20.1854 129.145 20.2487 129.116 20.3082 129.08C20.4795 128.987 20.6432 128.88 20.7978 128.76C21.3485 128.281 21.7904 127.69 22.0938 127.026C22.305 126.62 22.5386 126.178 22.7658 125.688C22.993 125.199 23.2234 124.677 23.473 124.13C23.7265 123.555 24.0162 122.998 24.3402 122.46C24.6953 121.889 25.0944 121.346 25.5338 120.837C26.433 119.781 27.3962 118.866 28.2346 117.996C28.9902 117.23 29.6786 116.402 30.2922 115.519C30.7034 114.922 31.0407 114.277 31.297 113.599C31.3802 113.356 31.441 113.167 31.473 113.036C31.4943 112.97 31.5083 112.903 31.5146 112.834C31.4954 112.834 31.4218 113.103 31.2298 113.573C30.9503 114.233 30.5994 114.861 30.1834 115.445C29.5606 116.309 28.8681 117.12 28.113 117.871C27.2746 118.735 26.305 119.644 25.3962 120.712C24.9478 121.227 24.5412 121.777 24.1802 122.357C23.8554 122.902 23.5657 123.468 23.313 124.05L22.6218 125.618C22.401 126.104 22.1738 126.549 21.9818 126.956C21.6955 127.613 21.2786 128.205 20.7562 128.696C20.369 129.026 20.1098 129.148 20.1194 129.167Z" fill="#263238"/>
<path d="M26.9099 127.039C26.9012 126.741 26.8604 126.445 26.7883 126.155C26.6859 125.615 26.5163 124.875 26.2891 124.066C26.0619 123.256 25.8187 122.536 25.6235 122.021C25.5352 121.736 25.415 121.463 25.2651 121.205C25.3164 121.498 25.3957 121.785 25.5019 122.063C25.6651 122.587 25.8859 123.311 26.1131 124.114C26.3403 124.917 26.5291 125.653 26.6635 126.184C26.7184 126.476 26.8009 126.762 26.9099 127.039Z" fill="#263238"/>
<path d="M20.3691 120.696C20.6831 120.654 20.9926 120.583 21.2939 120.485C21.8603 120.338 22.6411 120.137 23.5115 119.938C24.3819 119.74 25.1723 119.593 25.7515 119.484C26.0662 119.443 26.3768 119.375 26.6795 119.28C26.3577 119.269 26.0357 119.295 25.7195 119.356C25.1371 119.433 24.3371 119.564 23.4795 119.762C22.6219 119.961 21.8251 120.181 21.2683 120.36C20.9574 120.44 20.6559 120.552 20.3691 120.696Z" fill="#263238"/>
<path d="M31.7804 122.536C31.7658 122.191 31.7175 121.848 31.6364 121.512C31.5212 120.872 31.3388 120.024 31.0924 119.084C30.846 118.143 30.5868 117.301 30.382 116.696C30.2858 116.365 30.1594 116.044 30.0044 115.736C30.064 116.075 30.1496 116.409 30.2604 116.735C30.4332 117.349 30.6732 118.191 30.9196 119.128C31.166 120.066 31.3676 120.92 31.5148 121.541C31.576 121.88 31.6648 122.212 31.7804 122.536Z" fill="#263238"/>
<path d="M23.3804 115.198C24.6053 115.154 25.8272 115.047 27.0412 114.878C28.2623 114.779 29.4777 114.619 30.6828 114.399C30.6828 114.351 29.038 114.482 27.022 114.696C25.006 114.91 23.3772 115.134 23.3804 115.198Z" fill="#263238"/>
<path d="M24.5801 135.055C24.5801 135.107 30.3401 135.149 37.4473 135.149C44.5545 135.149 50.3113 135.107 50.3113 135.055C50.3113 135.004 44.5513 134.965 37.4473 134.965C30.3433 134.965 24.5801 135.007 24.5801 135.055Z" fill="#455A64"/>
<path d="M28.5898 142.471C28.5898 142.522 32.4714 142.561 37.2554 142.561C42.0394 142.561 45.9242 142.522 45.9242 142.471C45.9242 142.419 42.0458 142.377 37.2554 142.377C32.465 142.377 28.5898 142.419 28.5898 142.471Z" fill="#455A64"/>
<path d="M28.7402 143.53C28.7402 143.582 32.5546 143.624 37.2554 143.624C41.9562 143.624 45.7738 143.582 45.7738 143.53C45.7738 143.478 41.9626 143.439 37.2554 143.439C32.5482 143.439 28.7402 143.478 28.7402 143.53Z" fill="#455A64"/>
<path d="M28.436 141.598C28.436 141.649 32.452 141.688 37.396 141.688C42.34 141.688 46.356 141.649 46.356 141.598C46.356 141.546 42.3432 141.504 37.396 141.504C32.4488 141.504 28.436 141.546 28.436 141.598Z" fill="#455A64"/>
<path d="M143.713 153.022C143.713 153.07 115.409 153.106 80.5031 153.106C45.5975 153.106 17.2871 153.07 17.2871 153.022C17.2871 152.973 45.5847 152.938 80.5031 152.938C115.422 152.938 143.713 152.976 143.713 153.022Z" fill="#263238"/>
</svg>
