<svg width="374" height="132" viewBox="0 0 374 132" fill="none" xmlns="http://www.w3.org/2000/svg">
<path d="M154 83.5C94.9502 79.515 42.5 105 0.5 132H368.505C372.501 132 373.5 128.667 373.5 127V5C373.5 1 372 0 368.006 0H351.5C314.041 0 271 37.5 261.5 49.5C242.637 73.327 235.5 89 154 83.5Z" fill="url(#paint0_linear_18291_176180)"/>
<path d="M296.819 32.1771L299.693 38.5284C302.265 44.2089 308.171 47.6187 314.376 47.0052L321.313 46.3193L314.962 49.1941C309.282 51.7654 305.872 57.6713 306.485 63.8764L307.171 70.8142L304.296 64.4629C301.725 58.7824 295.819 55.3726 289.614 55.9861L282.676 56.672L289.028 53.7972C294.708 51.2259 298.118 45.32 297.504 39.1149L296.819 32.1771Z" fill="#F3F3F3"/>
<path d="M230.719 91.3784L228.718 95.0513C226.928 98.3364 227.43 102.397 229.968 105.146L232.805 108.22L229.132 106.219C225.847 104.428 221.786 104.931 219.037 107.469L215.963 110.306L217.964 106.633C219.755 103.348 219.252 99.2868 216.714 96.5375L213.878 93.4636L217.55 95.4652C220.836 97.2554 224.896 96.7527 227.646 94.2153L230.719 91.3784Z" fill="#F3F3F3"/>
<path d="M296.117 75.5C325.672 40.3 360.02 22.5 373.5 18V98.5C354.529 92.5 322.577 107.5 288.628 119.5C254.679 131.5 175.979 109.026 168.31 107.5C105.5 95 55 127 47 132H23.5C77.818 103.2 134.5 89 183.287 98.5C209.049 103.516 266.562 110.7 296.117 75.5Z" fill="white" fill-opacity="0.18"/>
<defs>
<linearGradient id="paint0_linear_18291_176180" x1="130" y1="6.00606e-06" x2="306" y2="132" gradientUnits="userSpaceOnUse">
<stop stop-color="#F3AAFF"/>
<stop offset="1" stop-color="#FFAEDF"/>
</linearGradient>
</defs>
</svg>
